<svg width="12" height="15" viewBox="0 0 12 15" fill="none" xmlns="http://www.w3.org/2000/svg">
<path d="M8.37328 3.51987L6.81772 2.60432L7.45772 0.924316L3.83105 2.20432L4.74661 4.79098L8.37328 3.51987Z" fill="#CB001F"/>
<path d="M2.49776 9.91103L8.04443 7.95548C7.35998 6.95992 6.13332 6.44436 4.93332 6.69325L3.42221 2.39992C3.34221 2.16881 3.08443 2.04437 2.84443 2.12437C2.61332 2.20437 2.48887 2.46214 2.56887 2.70214L4.08887 7.00436C3.02221 7.58214 2.40887 8.72881 2.49776 9.91103Z" fill="#304451"/>
<path d="M3.63574 10.222C3.70685 10.222 3.77796 10.2131 3.85796 10.2131C4.68463 10.2131 5.14685 10.5687 5.44908 10.7998C5.6713 10.9687 5.72463 11.0131 5.94685 11.0131C6.16908 11.0131 6.22241 10.9687 6.44463 10.7998C6.74685 10.5687 7.20908 10.2131 8.03574 10.2131C8.21352 10.2131 8.37352 10.2309 8.52463 10.2576C8.62241 9.74204 8.59574 9.19981 8.40908 8.66648C8.40019 8.63093 8.38241 8.59537 8.36463 8.55981L3.63574 10.222Z" fill="#304451"/>
<path d="M11.8044 11.3689C11.7155 11.2356 11.5733 11.1645 11.4221 11.1645C11.3421 11.1645 11.2533 11.1911 11.1821 11.2356C11.0844 11.2978 10.9955 11.3689 10.9066 11.4311C10.6666 11.6178 10.5066 11.7422 10.1333 11.7422C9.75992 11.7422 9.59992 11.6178 9.35992 11.4311C9.12881 11.2533 8.85326 11.0489 8.40881 10.9689C8.29326 10.9511 8.1777 10.9333 8.04437 10.9333C7.36881 10.9333 7.01326 11.2089 6.72881 11.4222C6.48881 11.6089 6.32881 11.7333 5.95548 11.7333C5.58215 11.7333 5.42215 11.6089 5.18215 11.4222C4.8977 11.2 4.54215 10.9333 3.86659 10.9333C3.35992 10.9333 3.03104 11.0845 2.78215 11.2533C2.70215 11.3067 2.62215 11.3689 2.55104 11.4222C2.31104 11.6089 2.15104 11.7333 1.7777 11.7333C1.40437 11.7333 1.24437 11.6089 1.00437 11.4222C0.91548 11.3511 0.826591 11.2889 0.728813 11.2267C0.657702 11.1822 0.568813 11.1556 0.488813 11.1556C0.337702 11.1556 0.195479 11.2267 0.10659 11.36C-0.0267429 11.5733 0.0354794 11.8489 0.239924 11.9822C0.311035 12.0267 0.382146 12.08 0.453257 12.1333C0.737702 12.3556 1.09326 12.6222 1.76881 12.6222C2.44437 12.6222 2.79992 12.3467 3.08437 12.1333C3.14659 12.08 3.20881 12.0356 3.27104 12C3.43104 11.8933 3.59104 11.8311 3.8577 11.8311C4.23104 11.8311 4.39104 11.9556 4.63104 12.1422C4.91548 12.3645 5.27103 12.6311 5.94659 12.6311C6.62215 12.6311 6.9777 12.3556 7.26215 12.1422C7.47548 11.9822 7.63548 11.8667 7.91104 11.8489C7.94659 11.8489 7.98215 11.84 8.02659 11.84C8.39992 11.84 8.55992 11.9645 8.79992 12.1511C9.08437 12.3733 9.43992 12.64 10.1155 12.64C10.791 12.64 11.1466 12.3645 11.431 12.1511C11.5021 12.0978 11.5644 12.0445 11.6444 12C11.8577 11.8667 11.911 11.5911 11.7777 11.3778L11.8044 11.3689Z" fill="#00AEA3"/>
<path d="M9.23594 13.28C8.96039 13.0667 8.61372 12.8 7.96483 12.8C7.31594 12.8 6.96927 13.0667 6.69372 13.2712C6.46261 13.4489 6.3115 13.5645 5.96483 13.5645C5.61816 13.5645 5.46705 13.4489 5.23594 13.2712C4.96039 13.0578 4.61372 12.8 3.96483 12.8C3.31594 12.8 2.96927 13.0667 2.69372 13.2712C2.64039 13.3156 2.57816 13.36 2.51594 13.3956C2.3115 13.5378 2.25816 13.8134 2.3915 14.0178C2.48039 14.1512 2.62261 14.2134 2.76483 14.2134C2.85372 14.2134 2.93372 14.1867 3.01372 14.1334C3.09372 14.08 3.16483 14.0267 3.23594 13.9734C3.46705 13.7956 3.61816 13.68 3.96483 13.68C4.3115 13.68 4.46261 13.7956 4.69372 13.9734C4.96927 14.1867 5.31594 14.4445 5.96483 14.4445C6.61372 14.4445 6.96039 14.1778 7.23594 13.9734C7.46705 13.7956 7.61816 13.68 7.96483 13.68C8.3115 13.68 8.46261 13.7956 8.69372 13.9734C8.76483 14.0267 8.83594 14.08 8.90705 14.1334C8.98705 14.1867 9.07594 14.2134 9.15594 14.2134C9.29816 14.2134 9.44039 14.1423 9.52927 14.0178C9.6715 13.8134 9.61816 13.5289 9.40483 13.3956C9.34261 13.36 9.28927 13.3156 9.23594 13.2712V13.28Z" fill="#00AEA3"/>
</svg>
