<svg width="30" height="30" viewBox="0 0 30 30" fill="none" xmlns="http://www.w3.org/2000/svg">
<path fill-rule="evenodd" clip-rule="evenodd" d="M9.58849 0H21.252C26.0833 0 29.9997 4.02944 29.9997 9V21C29.9997 25.9706 26.0833 30 21.252 30H9.58849C4.75728 30 0.84082 25.9706 0.84082 21V9C0.84082 4.02944 4.75728 0 9.58849 0ZM24.1674 4.49951C24.8964 4.49951 25.6254 5.24951 25.6254 5.99951C25.6254 6.74951 24.8964 7.49951 24.1674 7.49951C23.4385 7.49951 22.7095 6.74951 22.7095 5.99951C22.7095 5.24951 23.4385 4.49951 24.1674 4.49951ZM22.7095 15C22.7095 10.8638 19.44 7.5 15.4197 7.5C11.3995 7.5 8.13001 10.8638 8.13001 15C8.13001 19.1362 11.3995 22.5 15.4197 22.5C19.44 22.5 22.7095 19.1362 22.7095 15ZM15.4201 10.5005C13.0045 10.5005 11.0463 12.5152 11.0463 15.0005C11.0463 17.4858 13.0045 19.5005 15.4201 19.5005C17.8357 19.5005 19.7939 17.4858 19.7939 15.0005C19.7939 12.5152 17.8357 10.5005 15.4201 10.5005Z" fill="#2B3B4A"/>
</svg>
