<svg width="24" height="24" viewBox="0 0 24 24" fill="none" xmlns="http://www.w3.org/2000/svg">
<path fill-rule="evenodd" clip-rule="evenodd" d="M7.34384 0H16.6747C20.5396 0 23.6728 3.22355 23.6728 7.2V16.8C23.6728 20.7765 20.5396 24 16.6747 24H7.34384C3.47887 24 0.345703 20.7765 0.345703 16.8V7.2C0.345703 3.22355 3.47887 0 7.34384 0ZM19.0073 3.60004C19.5905 3.60004 20.1737 4.20004 20.1737 4.80004C20.1737 5.40004 19.5905 6.00004 19.0073 6.00004C18.4242 6.00004 17.841 5.40004 17.841 4.80004C17.841 4.20004 18.4242 3.60004 19.0073 3.60004ZM17.841 12.0002C17.841 8.69118 15.2254 6.00018 12.0092 6.00018C8.793 6.00018 6.17744 8.69118 6.17744 12.0002C6.17744 15.3092 8.793 18.0002 12.0092 18.0002C15.2254 18.0002 17.841 15.3092 17.841 12.0002ZM12.0092 8.40015C10.0767 8.40015 8.51016 10.0119 8.51016 12.0001C8.51016 13.9884 10.0767 15.6001 12.0092 15.6001C13.9417 15.6001 15.5083 13.9884 15.5083 12.0001C15.5083 10.0119 13.9417 8.40015 12.0092 8.40015Z" fill="#F2C724"/>
</svg>
