<svg width="377" height="84" viewBox="0 0 377 84" fill="none" xmlns="http://www.w3.org/2000/svg">
<g clip-path="url(#clip0_605_1066)">
<path d="M148.01 0.755859V38.1661H185.42V0.755859H148.01ZM184.294 30.2391H149.136V8.68279H184.294V30.2431V30.2391Z" fill="white"/>
<path d="M191.723 0.755859V38.1661H229.133V0.755859H191.723ZM216.662 25.6947H204.191V13.2233H216.662V25.6947Z" fill="white"/>
<path d="M20.7407 65.52C18.3929 63.3751 15.2372 62.2012 10.6649 62.2012H0.24292V83.081H10.7047C14.7916 83.081 18.1104 82.0304 20.4144 79.9651C22.4797 78.1864 23.8924 75.7152 23.8924 72.4799C23.8924 69.6466 22.5991 67.2192 20.7368 65.52H20.7407ZM10.1396 80.6138H4.59637V64.6724H9.61437C13.1759 64.6724 15.1577 65.4006 17.0996 67.1794C18.5163 68.4727 19.4474 70.0923 19.4474 72.4799C19.4474 76.6463 16.6141 80.6138 10.1396 80.6138Z" fill="white"/>
<path d="M44.2471 61.4336C36.8813 61.4336 30.8127 66.4516 30.8127 72.6435C30.8127 78.8354 36.8813 83.8097 44.2471 83.8097C51.613 83.8097 57.6815 78.8315 57.6815 72.6435C57.6815 66.4556 51.6528 61.4336 44.2471 61.4336ZM44.2471 81.5454C38.6243 81.5454 35.3453 77.6615 35.3453 72.6435C35.3453 67.6255 38.6243 63.7416 44.2471 63.7416C49.87 63.7416 53.0296 67.6653 53.0296 72.6435C53.0296 77.6217 49.8342 81.5454 44.2471 81.5454Z" fill="white"/>
<path d="M87.642 74.8676V62.2012H84.7689V74.8676C84.7689 78.5087 82.6638 81.1391 77.1603 81.1391C72.3453 81.1391 70.2004 78.5087 70.2004 75.0705V62.2012H65.8589V74.8676C65.8589 77.1756 66.225 79.2369 68.4893 81.1391C70.1885 82.5955 72.8188 83.6461 76.7425 83.6461C76.8261 83.6461 77.1245 83.6461 77.2081 83.6461C81.1079 83.6023 83.5473 82.5239 85.1311 81.0993C87.1964 79.1971 87.6381 77.0124 87.6381 74.8676H87.642Z" fill="white"/>
<path d="M120.862 72.4406H116.695V79.2772C115.279 80.4511 113.376 81.3823 110.221 81.3823C104.96 81.3823 100.754 78.0634 100.754 72.9261C100.754 67.7887 104.236 63.8212 109.859 63.8212C113.46 63.8212 115.967 65.3175 118.355 67.0565L120.376 65.0349C117.543 62.89 114.753 61.4336 109.855 61.4336C102.369 61.4336 96.1377 66.4516 96.1377 72.9261C96.1377 79.4005 102.612 83.8097 109.612 83.8097C115.115 83.8097 118.959 81.5016 120.862 79.6831V72.4406Z" fill="white"/>
<path d="M131.304 62.2012V83.081H148.177V80.5342H135.51V62.2012H131.304Z" fill="white"/>
<path d="M181.428 83.081L169.935 62.2012H166.091L154.559 83.081H157.918L160.751 77.6173H173.7L176.692 83.081H181.428ZM161.885 75.353L167.106 65.4404L172.486 75.353H161.885Z" fill="white"/>
<path d="M198.791 81.2635C194.095 81.2635 190.657 79.2817 188.715 77.8253L187.056 79.9702C189.483 81.6694 193.327 83.7347 198.994 83.7347C203.809 83.7347 209.838 81.8723 209.838 76.8145C209.838 71.7567 204.052 70.3798 199.479 70.2605C196.809 70.0973 192.034 70.0177 192.034 67.3873C192.034 64.554 195.755 63.9889 198.385 63.9889C201.823 63.9889 204.939 65.0395 207.084 66.3368L208.58 64.1521C206.316 62.815 203.077 61.5615 198.182 61.5615C193.287 61.5615 188.309 63.3005 188.309 68.1156C188.309 72.9306 194.219 73.7822 198.95 73.8618C202.026 73.9414 205.95 74.4269 205.95 77.3398C205.95 80.2527 202.671 81.2635 198.787 81.2635H198.791Z" fill="white"/>
<path d="M228.612 81.2635C223.916 81.2635 220.478 79.2817 218.536 77.8253L216.876 79.9702C219.304 81.6694 223.148 83.7347 228.815 83.7347C233.63 83.7347 239.658 81.8723 239.658 76.8145C239.658 71.7567 233.872 70.3798 229.3 70.2605C226.63 70.0973 221.855 70.0177 221.855 67.3873C221.855 64.554 225.575 63.9889 228.206 63.9889C231.644 63.9889 234.76 65.0395 236.905 66.3368L238.401 64.1521C236.137 62.815 232.897 61.5615 228.003 61.5615C223.108 61.5615 218.13 63.3005 218.13 68.1156C218.13 72.9306 224.039 73.7822 228.771 73.8618C231.847 73.9414 235.771 74.4269 235.771 77.3398C235.771 80.2527 232.492 81.2635 228.608 81.2635H228.612Z" fill="white"/>
<path d="M263.746 62.2012V83.081H267.956V74.3821H276.659C279.492 74.3821 281.637 73.7334 283.054 72.5197C284.43 71.3856 285.075 69.7262 285.075 68.3931C285.075 66.8968 284.426 65.4802 283.376 64.4694C281.434 62.6906 279.492 62.2051 274.757 62.2051H263.746V62.2012ZM280.702 68.3931C280.702 70.7011 278.879 71.9944 276.332 71.9944H267.952V64.6684H275.238C278.191 64.6684 280.702 65.317 280.702 68.3891V68.3931Z" fill="white"/>
<path d="M304.634 61.4336C297.268 61.4336 291.2 66.4516 291.2 72.6435C291.2 78.8354 297.268 83.8097 304.634 83.8097C312 83.8097 318.069 78.8315 318.069 72.6435C318.069 66.4556 312.04 61.4336 304.634 61.4336ZM304.634 81.5454C299.011 81.5454 295.732 77.6615 295.732 72.6435C295.732 67.6255 299.011 63.7416 304.634 63.7416C310.257 63.7416 313.417 67.6653 313.417 72.6435C313.417 77.6217 310.221 81.5454 304.634 81.5454Z" fill="white"/>
<path d="M349.072 68.3144C349.072 66.8182 348.463 65.4413 347.413 64.4305C345.511 62.6517 343.569 62.2061 338.996 62.2061H326.979V83.0859H331.189V74.2238H338.312L344.464 83.0859H349.402L342.765 73.9015C347.094 73.4956 349.076 70.909 349.076 68.3184L349.072 68.3144ZM331.185 71.876V64.6733H339.279C342.231 64.6733 344.703 65.3219 344.703 68.3144C344.703 70.8652 342.761 71.876 340.25 71.876H331.185Z" fill="white"/>
<path d="M356.274 64.7122H364.205V83.081H368.475V64.7122H376.486V62.2012H356.274V64.7122Z" fill="white"/>
</g>
<defs>
<clipPath id="clip0_605_1066">
<rect width="376.243" height="83.0537" fill="white" transform="translate(0.243164 0.755859)"/>
</clipPath>
</defs>
</svg>
