<svg width="133" height="65" viewBox="0 0 133 65" fill="none" xmlns="http://www.w3.org/2000/svg">
<g clip-path="url(#clip0_599_5452)">
<g clip-path="url(#clip1_599_5452)">
<path d="M44.0649 0.273926V20.7687H64.5597V0.273926H44.0649ZM63.9427 16.426H44.6819V4.6166H63.9427V16.4282V16.426Z" fill="white"/>
<path d="M68.011 0.273926V20.7687H88.5057V0.273926H68.011ZM81.6734 13.9364H74.8411V7.10405H81.6734V13.9364Z" fill="white"/>
<path d="M11.9504 35.7264C10.6642 34.5513 8.93541 33.9082 6.43052 33.9082H0.720947V45.347H6.45232C8.69124 45.347 10.5094 44.7714 11.7717 43.64C12.9031 42.6655 13.677 41.3117 13.677 39.5393C13.677 37.9871 12.9685 36.6573 11.9483 35.7264H11.9504ZM6.14276 43.9953H3.10593V35.262H5.85499C7.80614 35.262 8.89181 35.661 9.95568 36.6355C10.7318 37.344 11.2419 38.2313 11.2419 39.5393C11.2419 41.8218 9.68971 43.9953 6.14276 43.9953Z" fill="white"/>
<path d="M24.8281 33.4873C20.7929 33.4873 17.4683 36.2364 17.4683 39.6285C17.4683 43.0207 20.7929 45.7458 24.8281 45.7458C28.8634 45.7458 32.188 43.0185 32.188 39.6285C32.188 36.2385 28.8852 33.4873 24.8281 33.4873ZM24.8281 44.5031C21.7477 44.5031 19.9513 42.3754 19.9513 39.6263C19.9513 36.8773 21.7477 34.7496 24.8281 34.7496C27.9086 34.7496 29.6395 36.8991 29.6395 39.6263C29.6395 42.3536 27.8889 44.5031 24.8281 44.5031Z" fill="white"/>
<path d="M48.6016 40.8473V33.9082H47.0276V40.8473C47.0276 42.8421 45.8744 44.2831 42.8593 44.2831C40.2215 44.2831 39.0464 42.8421 39.0464 40.9585V33.9082H36.668V40.8473C36.668 42.1118 36.8685 43.241 38.109 44.2831C39.0399 45.081 40.4809 45.6565 42.6304 45.6565C42.6762 45.6565 42.8397 45.6565 42.8855 45.6565C45.022 45.6326 46.3583 45.0418 47.226 44.2613C48.3574 43.2192 48.5994 42.0224 48.5994 40.8473H48.6016Z" fill="white"/>
<path d="M64.5183 43.2627C63.7422 43.9058 62.7001 44.4159 60.9713 44.4159C58.0893 44.4159 55.785 42.5978 55.785 39.7833C55.785 36.9689 57.6925 34.7953 60.7729 34.7953C62.7459 34.7953 64.1193 35.615 65.4274 36.5677L66.5348 35.4603C64.9826 34.2852 63.4544 33.4873 60.7708 33.4873C56.6701 33.4873 53.2561 36.2364 53.2561 39.7833C53.2561 43.3303 56.8031 45.7458 60.6378 45.7458C63.6528 45.7458 65.7587 44.4813 66.8008 43.4851V39.5173H64.5183V43.2627Z" fill="white"/>
<path d="M72.5215 33.9082V45.347H81.7649V43.9496H74.8258V33.9082H72.5215Z" fill="white"/>
<path d="M93.6877 33.9082H91.5817L85.2639 45.347H87.1039L88.6561 42.3538H95.75L97.3894 45.347H99.9837L93.6877 33.9082ZM89.2752 41.1133L92.1355 35.6828L95.0829 41.1133H89.2752Z" fill="white"/>
<path d="M115.545 41.9111C115.545 39.0073 112.375 38.3859 109.87 38.3205C108.407 38.2312 105.791 38.1876 105.791 36.7465C105.791 35.1943 107.83 34.8848 109.271 34.8848C111.154 34.8848 112.861 35.4603 114.036 36.171L114.856 34.9741C113.615 34.2416 111.841 33.5549 109.159 33.5549C106.478 33.5549 103.751 34.5076 103.751 37.1455C103.751 39.7834 106.988 40.2499 109.58 40.2935C111.265 40.3371 113.415 40.6031 113.415 42.1989C113.415 43.7947 111.618 44.3484 109.491 44.3484C106.918 44.3484 105.035 43.2627 103.971 42.4648L103.062 43.6399C104.392 44.5708 106.498 45.7022 109.602 45.7022C112.24 45.7022 115.543 44.682 115.543 41.9111H115.545Z" fill="white"/>
<path d="M126.205 38.3183C124.742 38.229 122.126 38.1854 122.126 36.7443C122.126 35.1921 124.165 34.8826 125.606 34.8826C127.489 34.8826 129.196 35.4581 130.371 36.1688L131.191 34.972C129.951 34.2395 128.176 33.5527 125.495 33.5527C122.813 33.5527 120.086 34.5054 120.086 37.1433C120.086 39.7812 123.323 40.2477 125.915 40.2913C127.601 40.3349 129.75 40.6009 129.75 42.1967C129.75 43.7925 127.954 44.3462 125.826 44.3462C123.253 44.3462 121.37 43.2605 120.306 42.4626L119.397 43.6377C120.727 44.5686 122.833 45.7 125.937 45.7C128.575 45.7 131.878 44.6798 131.878 41.9089C131.878 39.138 128.708 38.3837 126.203 38.3183H126.205Z" fill="white"/>
<path d="M35.4146 52.4363V63.875H37.7211V59.1094H42.4888C44.041 59.1094 45.2161 58.7541 45.9922 58.0892C46.7465 57.4679 47.0997 56.5588 47.0997 55.8285C47.0997 55.0087 46.7443 54.2326 46.1688 53.6789C45.1049 52.7044 44.041 52.4385 41.4468 52.4385H35.4146V52.4363ZM44.7038 55.8263C44.7038 57.0907 43.7053 57.7992 42.3101 57.7992H37.7189V53.7857H41.7106C43.3282 53.7857 44.7038 54.1411 44.7038 55.8241V55.8263Z" fill="white"/>
<path d="M57.8147 52.0134C53.7794 52.0134 50.4548 54.7625 50.4548 58.1547C50.4548 61.5468 53.7794 64.2719 57.8147 64.2719C61.85 64.2719 65.1746 61.5446 65.1746 58.1547C65.1746 54.7647 61.8718 52.0134 57.8147 52.0134ZM57.8147 63.0314C54.7343 63.0314 52.9379 60.9037 52.9379 58.1547C52.9379 55.4056 54.7343 53.2779 57.8147 53.2779C60.8951 53.2779 62.6261 55.4274 62.6261 58.1547C62.6261 60.8819 60.8755 63.0314 57.8147 63.0314Z" fill="white"/>
<path d="M82.1593 55.7827C82.1593 54.963 81.8258 54.2087 81.2503 53.6549C80.2082 52.6804 79.1443 52.4363 76.6394 52.4363H70.0557V63.875H72.3622V59.0201H76.2645L79.6348 63.875H82.3403L78.704 58.8435C81.0759 58.6211 82.1615 57.2041 82.1615 55.7849L82.1593 55.7827ZM72.36 57.7338V53.7879H76.7942C78.4118 53.7879 79.7656 54.1433 79.7656 55.7827C79.7656 57.1801 78.7018 57.7338 77.3262 57.7338H72.36Z" fill="white"/>
<path d="M86.1052 53.8097H90.4501V63.875H92.7893V53.8097H97.1799V52.4363H86.1052V53.8097Z" fill="white"/>
</g>
</g>
<defs>
<clipPath id="clip0_599_5452">
<rect width="132.414" height="64" fill="white" transform="translate(0.293213 0.273926)"/>
</clipPath>
<clipPath id="clip1_599_5452">
<rect width="131.161" height="64" fill="white" transform="translate(0.720947 0.273926)"/>
</clipPath>
</defs>
</svg>
