<svg width="264" height="70" viewBox="0 0 264 70" fill="none" xmlns="http://www.w3.org/2000/svg">
<path d="M14.3596 39.7904C12.7016 38.301 10.5097 37.458 7.30624 37.458H0V52.0986H7.33434C10.2006 52.0986 12.533 51.368 14.1348 49.9067C15.5679 48.6703 16.5795 46.928 16.5795 44.6518C16.5795 42.6567 15.6803 40.9706 14.3596 39.7623V39.7904ZM6.94093 50.3844H3.063V39.2284H6.57562C9.0766 39.2284 10.4535 39.7342 11.8305 40.9987C12.814 41.898 13.4884 43.0501 13.4884 44.708C13.4884 47.6305 11.4933 50.4125 6.96903 50.4125L6.94093 50.3844Z" fill="#F9F4E1"/>
<path d="M40.2417 44.7932C40.2417 40.4656 36.0265 36.953 30.8279 36.953C25.6292 36.953 21.4141 40.4656 21.4141 44.7932C21.4141 49.1207 25.6573 52.6052 30.8279 52.6052C35.9984 52.6052 40.2417 49.1207 40.2417 44.7932ZM24.5895 44.7932C24.5895 41.3086 26.8937 38.5548 30.8279 38.5548C34.762 38.5548 36.982 41.3086 36.982 44.7932C36.982 48.2777 34.7339 51.0316 30.8279 51.0316C26.9218 51.0316 24.5895 48.3058 24.5895 44.7932Z" fill="#F9F4E1"/>
<path d="M45.9727 37.4862V46.3661C45.9727 47.996 46.2256 49.4291 47.8273 50.7498C49.0076 51.7615 50.8622 52.5202 53.6161 52.5202C53.6723 52.5202 53.8971 52.5202 53.9533 52.5202C56.6791 52.4921 58.3933 51.7334 59.5173 50.7217C60.9504 49.401 61.2877 47.8554 61.2877 46.3661V37.4862H59.2644V46.3661C59.2644 48.9233 57.8031 50.7498 53.9252 50.7498C50.5531 50.7498 49.0357 48.8952 49.0357 46.5066V37.4862H46.0008H45.9727Z" fill="#F9F4E1"/>
<path d="M84.5016 49.7106V44.6244H81.5791V49.4015C80.5956 50.2164 79.2467 50.8628 77.0548 50.8628C73.3736 50.8628 70.423 48.5304 70.423 44.9335C70.423 41.3365 72.8678 38.5546 76.8019 38.5546C79.331 38.5546 81.0733 39.5943 82.7593 40.8307L84.1644 39.4257C82.1692 37.9363 80.2302 36.8966 76.8019 36.8966C71.5471 36.8966 67.1914 40.4092 67.1914 44.9335C67.1914 49.4577 71.7157 52.5488 76.6333 52.5488C80.4831 52.5488 83.1808 50.919 84.5016 49.6544V49.7106Z" fill="#F9F4E1"/>
<path d="M103.638 50.3283H94.7584V37.4862H91.8359V52.0987H103.638V50.3283Z" fill="#F9F4E1"/>
<path d="M123.614 52.0986H126.93L118.865 37.458H116.167L108.074 52.0986H110.435L112.43 48.2769H121.506L123.614 52.0986ZM113.245 46.6751L116.898 39.7342L120.663 46.6751H113.245Z" fill="#F9F4E1"/>
<path d="M138.819 38.7218C141.236 38.7218 143.399 39.4524 144.917 40.3798L145.957 38.8623C144.383 37.935 142.107 37.0358 138.678 37.0358C135.25 37.0358 131.766 38.2441 131.766 41.6162C131.766 44.9883 135.896 45.5784 139.212 45.6346C141.376 45.6909 144.13 46.0281 144.13 48.0794C144.13 50.1308 141.826 50.8333 139.1 50.8333C135.812 50.8333 133.396 49.4564 132.047 48.4166L130.895 49.906C132.609 51.0862 135.278 52.5475 139.269 52.5475C142.641 52.5475 146.856 51.2548 146.856 47.686C146.856 44.1172 142.809 43.1899 139.606 43.1056C137.723 42.9932 134.379 42.937 134.379 41.0823C134.379 39.0871 136.992 38.6937 138.819 38.6937V38.7218Z" fill="#F9F4E1"/>
<path d="M160.006 50.8351C156.718 50.8351 154.302 49.4581 152.953 48.4184L151.801 49.9077C153.515 51.088 156.185 52.5492 160.175 52.5492C163.547 52.5492 167.762 51.2566 167.762 47.6877C167.762 44.1189 163.716 43.1916 160.512 43.1073C158.629 42.9949 155.285 42.9387 155.285 41.084C155.285 39.0889 157.899 38.6955 159.725 38.6955C162.142 38.6955 164.306 39.4261 165.823 40.3534L166.863 38.836C165.289 37.9086 163.013 37.0094 159.585 37.0094C156.156 37.0094 152.672 38.2177 152.672 41.5898C152.672 44.962 156.803 45.5521 160.119 45.6083C162.282 45.6645 165.036 46.0017 165.036 48.0531C165.036 50.1044 162.732 50.807 160.006 50.807V50.8351Z" fill="#F9F4E1"/>
<path d="M184.594 52.0987H187.544V46.0008H193.642C195.637 46.0008 197.127 45.5512 198.11 44.7081C199.066 43.9213 199.515 42.7411 199.515 41.8138C199.515 40.774 199.066 39.7624 198.335 39.0599C196.986 37.8234 195.609 37.4862 192.293 37.4862H184.594V52.1268V52.0987ZM187.544 39.2004H192.659C194.738 39.2004 196.48 39.65 196.48 41.8138C196.48 43.4436 195.216 44.3428 193.417 44.3428H187.544V39.2004Z" fill="#F9F4E1"/>
<path d="M213.258 36.9248C208.087 36.9248 203.844 40.4374 203.844 44.765C203.844 49.0925 208.087 52.577 213.258 52.577C218.428 52.577 222.671 49.0925 222.671 44.765C222.671 40.4374 218.456 36.9248 213.258 36.9248ZM213.258 51.0315C209.323 51.0315 207.019 48.3057 207.019 44.7931C207.019 41.2805 209.323 38.5547 213.258 38.5547C217.192 38.5547 219.412 41.3086 219.412 44.7931C219.412 48.2776 217.164 51.0315 213.258 51.0315Z" fill="#F9F4E1"/>
<path d="M228.91 37.4862V52.1268H231.861V45.9165H236.863L241.162 52.1268H244.619L239.982 45.6917C243.017 45.4107 244.394 43.5841 244.394 41.7856C244.394 40.7459 243.972 39.7624 243.242 39.0599C241.921 37.8234 240.544 37.5143 237.34 37.5143H228.91V37.4862ZM241.331 41.7575C241.331 43.556 239.982 44.2585 238.212 44.2585H231.861V39.2004H237.537C239.617 39.2004 241.331 39.65 241.331 41.7575Z" fill="#F9F4E1"/>
<path d="M249.422 39.2285H254.986V52.0987H257.965V39.2285H263.585V37.4862H249.422V39.2285Z" fill="#F9F4E1"/>
<path d="M56.3412 68.1724C56.7908 68.1443 57.4371 68.1162 58.1115 68.1162C58.786 68.1162 59.4604 68.1162 59.8819 68.1443C60.1067 68.7063 60.3315 69.2402 60.5563 69.8303H61.9895C60.9216 67.7228 59.91 65.559 58.8984 63.2828H57.4933C56.4817 65.3623 55.3577 67.7228 54.2617 69.8303H55.6668C55.8635 69.3245 56.0883 68.7625 56.3412 68.1443V68.1724ZM58.1115 64.2102C58.5893 65.2218 59.0389 66.2053 59.4604 67.217C59.0389 67.217 58.5893 67.217 58.1677 67.217C57.69 67.217 57.2123 67.217 56.7346 67.217C57.1561 66.2896 57.6057 65.2499 58.1115 64.2102Z" fill="#F9F4E1"/>
<path d="M70.2505 64.407V63.311H63.5625V64.407C64.6303 64.3508 65.4172 64.2946 66.3164 64.3227V66.5988C66.3164 67.6948 66.3164 68.7907 66.3164 69.8867H67.4966C67.4966 68.7907 67.4966 67.6948 67.4966 66.5988C67.4966 65.8401 67.4966 65.0814 67.4966 64.3227C68.3959 64.3227 69.1827 64.3789 70.2786 64.407H70.2505Z" fill="#F9F4E1"/>
<path d="M81.8594 69.9723C83.7141 69.9723 85.3158 69.045 85.3158 66.825V66.3473C84.2199 66.3473 83.1239 66.3473 82.028 66.2911V67.3027C82.7867 67.2465 83.5174 67.2184 84.2761 67.1903C84.1918 68.4548 83.2082 68.9607 81.8875 68.9607C80.3138 68.9607 79.4146 68.1738 79.4146 66.5721C79.4146 65.1108 80.2576 64.2116 81.9156 64.2116C83.152 64.2116 83.9389 64.6893 84.4166 65.2513L85.2034 64.3802C84.5009 63.6777 83.6298 63.1719 81.9156 63.1719C79.4708 63.1719 78.2344 64.5769 78.2344 66.6564C78.2344 68.7359 79.5551 70.0004 81.8875 70.0004L81.8594 69.9723Z" fill="#F9F4E1"/>
<path d="M91.9727 69.9722C94.4736 69.9722 95.7382 68.5672 95.7382 66.5158C95.7382 64.4644 94.3893 63.1437 92.0289 63.1437C89.6684 63.1437 88.3477 64.5487 88.3477 66.5158C88.3477 68.7077 89.6684 69.9722 92.0008 69.9722H91.9727ZM92.0289 64.2115C93.6306 64.2115 94.5299 64.9702 94.5299 66.5439C94.5299 68.1175 93.6868 68.9606 92.0008 68.9606C90.4271 68.9606 89.5279 68.1737 89.5279 66.572C89.5279 65.1107 90.3709 64.2396 92.0289 64.2396V64.2115Z" fill="#F9F4E1"/>
<path d="M101.696 69.8586L103.663 64.4351C104.422 66.2335 105.265 68.032 105.939 69.8586H107.035C107.963 67.6948 108.721 65.5591 109.677 63.311H108.244C107.766 65.0814 107.176 66.7674 106.586 68.4816C105.883 66.7674 105.068 65.0252 104.506 63.311H103.129L101.303 68.4254C100.6 66.655 100.01 65.0252 99.4199 63.311H98.043C98.9141 65.531 99.7009 67.5824 100.516 69.8586H101.668H101.696Z" fill="#F9F4E1"/>
<path d="M111.363 69.8585H112.768C112.965 69.3526 113.19 68.7906 113.443 68.1724C113.892 68.1443 114.539 68.1162 115.213 68.1162C115.888 68.1162 116.562 68.1162 116.983 68.1443C117.208 68.7063 117.433 69.2402 117.658 69.8303H119.091C118.023 67.7228 117.012 65.559 116 63.2828H114.595C113.583 65.3623 112.459 67.7228 111.363 69.8303V69.8585ZM116.59 67.217C116.169 67.217 115.719 67.217 115.297 67.217C114.82 67.217 114.342 67.217 113.864 67.217C114.286 66.2896 114.735 65.2499 115.241 64.2102C115.719 65.2218 116.169 66.2053 116.59 67.217Z" fill="#F9F4E1"/>
<path d="M128.758 69.8586C128.758 68.4254 128.814 64.9971 128.842 63.311H127.605C127.662 64.6318 127.746 66.8237 127.774 68.313C126.538 66.7394 124.964 64.9128 123.784 63.311H122.098C122.098 64.8847 122.126 68.6221 122.098 69.8586H123.362C123.25 68.2006 123.194 65.9806 123.165 64.4632C124.542 66.1211 126.144 68.2849 127.437 69.8586H128.701H128.758Z" fill="#F9F4E1"/>
<path d="M136.15 69.9428C138.37 69.9428 139.298 68.7344 139.298 67.0484C139.298 65.1094 139.298 63.9011 139.298 63.2828H138.118C138.118 64.3788 138.118 65.3623 138.118 66.6549C138.118 68.4534 137.527 68.903 136.179 68.903C134.745 68.903 134.211 68.2848 134.211 66.7112C134.211 65.6152 134.211 64.2945 134.211 63.2828H133.031C133.059 64.435 133.031 65.3623 133.031 67.1327C133.031 68.9873 134.127 69.9428 136.066 69.9428H136.15Z" fill="#F9F4E1"/>
<path d="M146.182 64.1835C147.418 64.1835 148.177 64.5769 148.654 65.0546L149.385 64.1835C148.683 63.5372 147.755 63.1719 146.238 63.1719C144.355 63.1719 143.231 63.8182 143.231 65.0546C143.231 66.2911 144.158 66.825 146.041 67.0498C147.952 67.2184 148.317 67.5556 148.317 68.0614C148.317 68.6235 147.868 68.9607 146.603 68.9607C145.142 68.9607 144.271 68.5672 143.653 67.9771L142.922 68.8483C143.624 69.5227 144.72 70.0004 146.378 70.0004C148.57 70.0004 149.469 69.2417 149.469 68.0614C149.469 66.8812 148.542 66.2911 146.547 66.0663C144.833 65.8977 144.355 65.6167 144.355 65.0265C144.355 64.4926 144.805 64.1835 146.153 64.1835H146.182Z" fill="#F9F4E1"/>
<path d="M161.778 69.8586L163.745 64.4351C164.504 66.2335 165.347 68.032 166.021 69.8586H167.117C168.045 67.6948 168.803 65.5591 169.759 63.311H168.326C167.848 65.0814 167.258 66.7674 166.668 68.4816C165.965 66.7674 165.15 65.0252 164.588 63.311H163.211L161.385 68.4254C160.682 66.655 160.092 65.0252 159.502 63.311H158.125C158.996 65.531 159.783 67.5824 160.598 69.8586H161.75H161.778Z" fill="#F9F4E1"/>
<path d="M178.216 63.2828C178.216 64.2383 178.216 65.1656 178.216 66.121C176.839 66.1491 175.434 66.1491 174.029 66.121C174.029 65.1656 174.029 64.2383 174.029 63.2828H172.82C172.82 65.4747 172.82 67.6666 172.82 69.8303H174.029C174.029 68.9311 174.029 68.0319 174.029 67.1327C175.49 67.1327 176.895 67.1327 178.216 67.1327C178.216 68.0319 178.216 68.9311 178.216 69.8303H179.396C179.396 67.6385 179.396 65.4466 179.396 63.2828H178.216Z" fill="#F9F4E1"/>
<path d="M184.509 68.1724C184.959 68.1443 185.605 68.1162 186.28 68.1162C186.954 68.1162 187.628 68.1162 188.05 68.1443C188.275 68.7063 188.5 69.2402 188.724 69.8303H190.157C189.09 67.7228 188.078 65.559 187.066 63.2828H185.661C184.65 65.3623 183.526 67.7228 182.43 69.8303H183.835C184.031 69.3245 184.256 68.7625 184.509 68.1443V68.1724ZM186.28 64.2102C186.757 65.2218 187.207 66.2053 187.628 67.217C187.207 67.217 186.757 67.217 186.336 67.217C185.858 67.217 185.38 67.217 184.903 67.217C185.324 66.2896 185.774 65.2499 186.28 64.2102Z" fill="#F9F4E1"/>
<path d="M198.309 69.8581H199.883V69.6614C198.815 68.7341 197.831 67.5539 197.297 67.0199C198.478 66.767 199.068 66.1488 199.068 65.2496C199.068 63.9007 198.14 63.2263 196.173 63.2263C195.302 63.2263 194.009 63.2263 193.223 63.2825C193.223 64.3785 193.223 65.4744 193.223 66.5703C193.223 67.6663 193.223 68.7622 193.223 69.8581H194.403C194.403 68.9308 194.403 68.0316 194.403 67.1042C194.909 67.1042 195.667 67.1323 196.061 67.1323C197.157 68.3126 197.859 69.268 198.365 69.8581H198.309ZM194.403 64.238C194.796 64.2099 195.33 64.2099 196.117 64.1818C197.157 64.1818 197.887 64.4066 197.887 65.2496C197.887 65.9521 197.269 66.1769 196.229 66.1769C195.443 66.1769 194.852 66.1488 194.375 66.0926C194.375 65.4744 194.375 64.8281 194.375 64.2098L194.403 64.238Z" fill="#F9F4E1"/>
<path d="M209.322 64.3788V63.2828H203.477C203.477 65.4747 203.477 67.6666 203.477 69.8303H204.657C204.657 68.9311 204.657 68.06 204.657 67.1608C205.416 67.1608 206.877 67.2451 208.591 67.3294V66.2896H204.657C204.657 65.6152 204.657 64.9127 204.657 64.2383C206.174 64.2383 207.495 64.2383 209.35 64.3788H209.322Z" fill="#F9F4E1"/>
<path d="M129.6 0.0281982H103.41V26.2183H129.6V0.0281982ZM128.841 25.4314L124.57 21.1601H126.593L128.87 23.4363V25.4595L128.841 25.4314ZM104.169 0.815023L108.384 5.03016H106.361L104.141 2.81019V0.786922L104.169 0.815023ZM128.841 21.1601V22.256L127.746 21.1601H128.841ZM125.61 5.05826L121.367 0.815023H123.39L127.633 5.05826H125.61ZM124.43 5.05826H122.406L118.163 0.815023H120.186L124.43 5.05826ZM121.254 5.05826H119.231L114.988 0.815023H117.011L121.254 5.05826ZM118.051 5.05826H116.027L111.784 0.815023H113.807L118.051 5.05826ZM114.847 5.05826H112.768L108.525 0.815023H110.604L114.847 5.05826ZM111.588 5.05826H109.564L105.321 0.815023H107.344L111.588 5.05826ZM105.209 5.05826H104.169V4.01853L105.209 5.05826ZM128.841 5.64838V20.5419H104.169V5.64838H128.841ZM104.169 25.4595V24.3917L105.237 25.4595H104.169ZM104.169 23.2115V21.1882L108.44 25.4595H106.417L104.169 23.2115ZM105.321 21.1601H107.344L111.644 25.4595H109.62L105.321 21.1601ZM108.525 21.1601H110.604L114.903 25.4595H112.824L108.525 21.1601ZM111.756 21.1601H113.779L118.079 25.4595H116.056L111.756 21.1601ZM114.96 21.1601H116.983L121.282 25.4595H119.259L114.96 21.1601ZM118.163 21.1601H120.186L124.486 25.4595H122.463L118.163 21.1601ZM121.367 21.1601H123.39L127.689 25.4595H125.666L121.367 21.1601ZM128.841 5.05826L124.598 0.815023H126.622L128.87 3.0631V5.05826H128.841ZM127.774 0.815023H128.841V1.88286L127.774 0.815023Z" fill="#F9F4E1"/>
<path d="M160.289 0H134.043V26.2463H160.289V0ZM151.381 17.0011V17.3664H142.895V8.87989H151.381V9.2733V10.1163V11.5776V12.4206V13.8819V14.7249V16.1861V17.0292V17.0011ZM134.802 12.3925H142.277V13.8538H134.802V12.3925ZM142.277 11.5776H134.802V10.1163H142.277V11.5776ZM134.802 14.6968H142.277V16.158H134.802V14.6968ZM151.999 12.3925H159.531V13.8538H151.999V12.3925ZM159.502 11.5495H151.971V10.0882H159.502V11.5495ZM151.999 14.6968H159.531V16.158H151.999V14.6968ZM159.362 0.814927L159.306 0.87113H159.362H159.502V2.33238H157.901V0.758726H159.362V0.814927ZM157.058 3.1473H157.03L157.058 3.1754H159.502V4.63665H155.596V0.758726H157.058V3.1473ZM154.753 5.45158H159.502V6.91283H153.292V0.730625H154.753V5.42348V5.45158ZM152.927 7.33434L152.477 7.81206H159.531V9.2733H151.999V8.28977H150.988V0.786825H152.449V7.81206L152.899 7.36244L152.927 7.33434ZM150.145 8.26167H148.684V0.758726H150.145V8.26167ZM147.841 8.26167H146.379V0.758726H147.841V8.26167ZM145.536 8.26167H144.075V0.758726H145.536V8.26167ZM143.232 8.26167H142.277V9.2733H134.802V7.81206H141.771V0.786825H143.232V8.28977V8.26167ZM140.928 6.94093H134.802V5.47968H139.466V0.758726H140.928V6.94093ZM138.623 4.60855V4.63665H134.802V3.1754H137.162H137.218L137.162 3.1192V0.758726H138.623V4.60855ZM136.319 2.30427V2.36048H134.802V0.899229H134.858H134.914L134.858 0.843028V0.786825H136.319V2.30427ZM134.886 25.4032V25.347L134.802 25.4032V23.942H136.347V25.4875H134.886V25.4032ZM137.19 23.099V23.0428L137.134 23.099H134.802V21.6377H138.652V25.4875H137.19V23.099ZM139.495 20.7666H139.466H134.802V19.3053H140.928V25.4594H139.466V20.7385L139.495 20.7666ZM141.799 18.4623H134.83V17.0011H142.305V17.9565H143.288V25.4594H141.827V18.4342L141.799 18.4623ZM144.103 17.9846H145.564V25.4875H144.103V17.9846ZM146.407 17.9846H147.869V25.4875H146.407V17.9846ZM148.712 17.9846H150.173V25.4875H148.712V17.9846ZM151.016 17.9846H151.999V17.0011H159.531V18.4623H152.505V25.4594H151.044V17.9565L151.016 17.9846ZM153.32 19.3334V19.3053H159.502V20.7666H154.781V25.4594H153.32V19.3334ZM155.624 21.6658V21.6377H159.474V23.099H157.058V25.4875H155.596V21.6658H155.624ZM157.929 23.9701V23.9139H159.502V25.3751H159.39H159.334L159.39 25.4313L157.929 25.4594V23.942V23.9701Z" fill="#F9F4E1"/>
</svg>
