<svg width="217" height="83" viewBox="0 0 217 83" fill="none" xmlns="http://www.w3.org/2000/svg">
<g clip-path="url(#clip0_39_554)">
<path d="M24.8548 8.38636V11.1073C26.897 10.9546 28.8899 10.8565 30.8829 10.8074C30.6809 14.1826 27.9835 15.5404 24.4562 15.5404C20.2191 15.5404 17.8003 13.452 17.8003 9.14429C17.8003 5.19105 20.0717 2.82456 24.5327 2.82456C27.8361 2.82456 29.9547 4.13322 31.2378 5.59455L33.3564 3.27714C31.4398 1.39049 29.1466 0.00549316 24.5327 0.00549316C17.9531 0.00549316 14.6006 3.80605 14.6006 9.34604C14.6006 14.886 18.1552 18.3594 24.4071 18.3594C29.425 18.3594 33.7386 15.8675 33.7386 9.87496V8.5663C30.7628 8.59356 27.8143 8.5663 24.8658 8.39181L24.8548 8.38636Z" fill="#2B3B4A"/>
<path d="M51.1244 18.3539C57.8568 18.3539 61.2367 14.5752 61.2367 9.0352C61.2367 3.49521 57.6056 0 51.25 0C44.8943 0 41.3179 3.80056 41.3179 9.06246C41.3179 14.9514 44.8725 18.3539 51.1244 18.3539ZM51.25 2.81907C55.5635 2.81907 58.0097 4.88566 58.0097 9.08972C58.0097 13.2938 55.7383 15.5621 51.179 15.5621C46.9419 15.5621 44.5503 13.4465 44.5503 9.11699C44.5503 5.19101 46.7945 2.82452 51.2554 2.82452L51.25 2.81907Z" fill="#2B3B4A"/>
<path d="M90.0277 14.2755C88.1112 9.64067 85.9708 5.0113 84.4037 0.376465H80.7235L75.782 14.101C73.8655 9.31896 72.2766 4.96222 70.7368 0.376465H67.0566C69.4264 6.34176 71.5449 11.8599 73.7399 17.9997H76.814L82.1322 3.44636C84.1471 8.25568 86.4676 13.1413 88.2859 17.9997H91.2126C93.686 12.1598 95.7773 6.46718 98.349 0.376465H94.4668C93.2055 5.15852 91.5948 9.6952 90.0277 14.2755Z" fill="#2B3B4A"/>
<path d="M111.028 0.376058C108.303 5.99238 105.278 12.3121 102.302 17.9993H106.059C106.589 16.6143 107.195 15.1039 107.899 13.4899C109.084 13.4136 110.875 13.3645 112.638 13.3645C114.402 13.3645 116.297 13.4136 117.427 13.4626C118.033 14.9458 118.639 16.4344 119.24 17.9939H123.122C120.272 12.3012 117.525 6.53766 114.801 0.370605H111.017L111.028 0.376058ZM112.868 10.9762C111.585 10.9762 110.296 10.9489 109.013 10.8999C110.121 8.38068 111.355 5.63796 112.693 2.81889C114.003 5.56162 115.188 8.2062 116.351 10.9271C115.194 10.9544 114.031 10.9762 112.873 10.9762H112.868Z" fill="#2B3B4A"/>
<path d="M146.022 13.8499C142.691 9.6458 138.459 4.68381 135.303 0.381592H130.788C130.837 4.61292 130.864 14.6351 130.788 18.0049H134.217C133.916 13.55 133.791 7.5574 133.66 3.47875C137.389 7.9609 141.703 13.779 145.181 18.0049H148.61C148.61 14.128 148.735 4.93463 148.839 0.381592H145.536C145.688 3.93133 145.94 9.79848 146.016 13.8499H146.022Z" fill="#2B3B4A"/>
<path d="M173.432 9.41711C173.432 14.2755 171.843 15.4588 168.239 15.4588C164.384 15.4588 162.943 13.7957 162.943 9.5916C162.943 6.66893 162.915 3.11919 163.019 0.376465H159.819C159.918 3.44636 159.847 5.96553 159.847 10.6985C159.847 15.7096 162.773 18.2778 168.042 18.2778C173.994 18.2778 176.538 15.028 176.538 10.4968C176.538 5.28393 176.538 2.06136 176.588 0.376465H173.388C173.415 3.34821 173.437 5.94372 173.437 9.41711H173.432Z" fill="#2B3B4A"/>
<path d="M195.72 15.5622C191.811 15.5622 189.468 14.4771 187.754 12.9449L185.788 15.2623C187.677 17.0999 190.653 18.3867 195.12 18.3867C201.044 18.3867 203.414 16.3474 203.414 13.2012C203.414 10.0549 200.94 8.41912 195.524 7.81386C190.937 7.33402 189.621 6.58154 189.621 5.04387C189.621 3.6098 190.833 2.75372 194.486 2.75372C197.79 2.75372 199.881 3.78428 201.142 5.07113L203.135 2.75372C201.268 1.04155 198.772 0.0109863 194.688 0.0109863C189.594 0.0109863 186.618 1.72315 186.618 5.04932C186.618 8.37549 189.113 9.83138 194.18 10.3876C199.324 10.8183 200.307 11.7453 200.307 13.1303C200.307 14.6407 199.095 15.5731 195.72 15.5731V15.5622Z" fill="#2B3B4A"/>
<path d="M50.4541 82.5002L55.554 67.9468C57.5688 72.7562 59.671 77.6418 61.4892 82.5002H64.4159C66.8893 76.6603 68.7622 70.9677 71.3339 64.877H67.4517C66.1904 69.659 64.7435 74.1902 63.231 78.776C61.3145 74.1412 59.3925 69.5118 57.8254 64.877H54.1452L49.4222 78.6015C47.6094 73.8249 46.0041 69.4736 44.5571 64.877H40.877C43.2467 70.8423 45.1905 76.3604 47.3855 82.5002H50.4596H50.4541Z" fill="#2B3B4A"/>
<path d="M82.8608 82.5002C82.8116 80.0847 82.7843 77.6418 82.7843 75.2208C86.7157 75.1445 90.5269 75.1445 94.0269 75.2208C94.0269 77.6364 94.0269 80.0792 93.9996 82.5002H97.1992C97.1228 76.6331 97.1228 70.7441 97.1992 64.877H93.9996C94.0269 67.4179 94.0269 69.9644 94.0269 72.5326C90.2976 72.6089 86.5409 72.6089 82.7843 72.5053C82.7843 69.9644 82.8116 67.4179 82.8608 64.877H79.6338C79.7102 70.7441 79.7102 76.6331 79.6338 82.5002H82.8608Z" fill="#2B3B4A"/>
<path d="M110.418 77.9962C111.603 77.9199 113.393 77.8708 115.157 77.8708C116.921 77.8708 118.815 77.9199 119.946 77.969C120.552 79.4521 121.158 80.9407 121.759 82.5002H125.641C122.79 76.8076 120.044 71.044 117.319 64.877H113.535C110.811 70.4933 107.786 76.813 104.81 82.5002H108.567C109.096 81.1152 109.702 79.6048 110.407 77.9908L110.418 77.9962ZM115.206 67.3198C116.517 70.0625 117.702 72.7071 118.865 75.428C117.707 75.4553 116.544 75.4771 115.386 75.4771C114.098 75.4771 112.815 75.4498 111.532 75.4007C112.64 72.8816 113.874 70.1388 115.212 67.3198H115.206Z" fill="#2B3B4A"/>
<path d="M136.534 82.5C136.507 80.0353 136.485 77.5652 136.458 75.0952C137.817 75.1442 140.362 75.1933 141.421 75.1933C144.37 78.3668 146.264 80.9078 147.597 82.4945H151.806V81.9929C148.934 79.501 146.308 76.3547 144.85 74.8934C148.001 74.2391 149.617 72.5269 149.617 70.1114C149.59 66.5125 147.143 64.6968 141.825 64.6968C139.483 64.6968 135.448 64.7731 133.356 64.8713H133.329C133.378 67.7939 133.378 70.7384 133.378 73.6829C133.378 76.6274 133.378 79.55 133.329 82.4945H136.529L136.534 82.5ZM136.512 67.3959C137.572 67.3195 139.51 67.2977 141.629 67.2705C144.452 67.2705 146.417 67.8975 146.395 70.1386C146.395 72.0525 144.757 72.6578 141.956 72.6578C139.838 72.6578 137.697 72.5596 136.463 72.4288C136.463 70.7439 136.491 69.0535 136.512 67.3904V67.3959Z" fill="#2B3B4A"/>
<path d="M164.141 82.4999C164.092 80.1061 164.065 77.7178 164.065 75.3241C166.107 75.3241 170.453 75.5749 175.067 75.8039V72.9849H164.065C164.065 71.1473 164.092 69.3097 164.092 67.4721C168.149 67.3958 172.195 67.5212 177.136 67.8266V64.8821H160.963C161.013 70.7492 161.013 76.6382 160.963 82.5053H164.141V82.4999Z" fill="#2B3B4A"/>
<path d="M217 42.8422L201.422 36.3644L183.944 43.6329L166.465 36.3644L148.982 43.6329L131.504 36.3644L115.838 42.875C114.392 43.4202 113.076 43.7474 112.311 43.7474C108.456 43.7474 106.567 42.2479 104.383 40.5085C102.013 38.6218 99.3214 36.4843 94.0414 36.4843C88.7614 36.4843 86.0804 38.5673 83.667 40.4103C81.2809 42.2315 79.2224 43.8019 74.8215 43.8019C70.4206 43.8019 68.3621 42.237 65.9541 40.4267C63.5025 38.5782 60.7287 36.4843 55.405 36.4843C50.0813 36.4843 47.3075 38.5782 44.8559 40.4267C42.4534 42.237 40.3731 43.8019 35.9886 43.8019C31.604 43.8019 29.5237 42.237 27.1212 40.4267C24.6696 38.5782 21.8958 36.4843 16.5721 36.4843C11.2484 36.4843 8.47461 38.5782 6.02298 40.4267C4.45045 41.6099 3.01987 42.6841 0.994141 43.2894V46.163C3.96995 45.4596 5.9247 43.9928 7.70472 42.6514C10.1072 40.8411 12.1821 39.2761 16.5721 39.2761C20.9621 39.2761 23.0315 40.8411 25.4394 42.6514C27.8911 44.4999 30.6649 46.5937 35.9886 46.5937C41.3122 46.5937 44.086 44.4999 46.5377 42.6514C48.9401 40.8411 51.0205 39.2761 55.405 39.2761C59.7896 39.2761 61.8699 40.8411 64.2724 42.6514C66.724 44.4999 69.4978 46.5937 74.8215 46.5937C80.1452 46.5937 82.9244 44.489 85.3597 42.6296C87.713 40.8302 89.7497 39.2816 94.0359 39.2816C98.3222 39.2816 100.43 40.9447 102.636 42.7005C104.902 44.5053 107.473 46.5501 112.306 46.5501C113.736 46.5501 115.549 45.9776 116.865 45.4814L131.498 39.4016L148.976 46.6701L166.46 39.4016L183.938 46.6701L201.416 39.4016L216.994 45.8794V42.8586L217 42.8422Z" fill="#2B3B4A"/>
</g>
<defs>
<clipPath id="clip0_39_554">
<rect width="217" height="83" fill="white"/>
</clipPath>
</defs>
</svg>
