<svg width="130" height="83" viewBox="0 0 130 83" fill="none" xmlns="http://www.w3.org/2000/svg">
<g clip-path="url(#clip0_55_1558)">
<g clip-path="url(#clip1_55_1558)">
<path d="M68.0882 10.8288V14.3423C70.7233 14.1501 73.2898 14.0198 75.8563 13.9511C75.5956 18.3087 72.1164 20.0655 67.5666 20.0655C62.1042 20.0655 58.9818 17.3686 58.9818 11.8032C58.9818 6.69764 61.9052 3.6439 67.6627 3.6439C71.9242 3.6439 74.6554 5.33204 76.3092 7.21918L79.0405 4.2272C76.57 1.79107 73.6123 0 67.6627 0C59.174 0 54.8507 4.91344 54.8507 12.064C54.8507 19.2146 59.4348 23.7025 67.498 23.7025C73.9692 23.7025 79.5277 20.4841 79.5277 12.7434V11.0552C75.6916 11.0895 71.883 11.0552 68.0813 10.8288H68.0882Z" fill="#2B3B4A"/>
<path d="M59.9151 83.0001L66.4961 64.2041C69.0969 70.4145 71.8075 76.721 74.1476 83.0001H77.9219C81.106 75.4583 83.5216 68.1088 86.8429 60.2377H81.8334C80.207 66.4138 78.3405 72.2674 76.3916 78.1896C73.9211 72.2056 71.437 66.2216 69.4263 60.2377H64.6776L58.5838 77.9562C56.2438 71.787 54.1713 66.1667 52.3048 60.2377H47.556C50.6098 67.9441 53.1214 75.0672 55.9487 83.0001H59.9151Z" fill="#2B3B4A"/>
<path d="M11.4189 43.5004C13.4433 41.9701 15.0422 40.7624 18.5283 40.7624C22.0144 40.7624 23.6133 41.9701 25.6377 43.5004C27.8542 45.1748 30.3658 47.0688 35.2312 47.0688C40.0966 47.0688 42.6151 45.1611 44.8179 43.473C46.8011 41.9564 48.3657 40.7624 51.7626 40.7624C55.1595 40.7624 56.6966 41.977 58.6318 43.521C60.6905 45.1611 63.0237 47.0208 67.4842 47.0208C68.843 47.0208 70.5105 46.4993 71.6703 46.0601L83.995 40.9339L99.0304 47.1924L114.066 40.9339L129.101 47.1924L129.266 47.1237V42.6632L129.101 42.7318L114.066 36.4734L99.0304 42.7318L83.995 36.4734L70.188 42.224C69.0626 42.6426 68.0332 42.9103 67.4842 42.9103C64.4648 42.9103 63.0237 41.7643 61.1983 40.3026C59.1533 38.6762 56.6143 36.6449 51.7695 36.6449C46.9247 36.6449 44.5091 38.5321 42.3269 40.1996C40.3162 41.7368 38.731 42.9446 35.2381 42.9446C31.7452 42.9446 30.1531 41.7368 28.1287 40.2065C25.9122 38.5321 23.4006 36.6381 18.5352 36.6381C13.6698 36.6381 11.1581 38.5321 8.9416 40.2065C6.91721 41.7368 5.31829 42.9446 1.83222 42.9446C1.15971 42.9446 0.555823 42.8965 0.00683594 42.8142V46.9659C0.57641 47.0277 1.1803 47.062 1.83222 47.062C6.69762 47.062 9.20923 45.168 11.4258 43.4936L11.4189 43.5004Z" fill="#2B3B4A"/>
</g>
</g>
<defs>
<clipPath id="clip0_55_1558">
<rect width="130" height="83" fill="white"/>
</clipPath>
<clipPath id="clip1_55_1558">
<rect width="129.266" height="83" fill="white"/>
</clipPath>
</defs>
</svg>
