<svg width="216" height="11" viewBox="0 0 216 11" fill="none" xmlns="http://www.w3.org/2000/svg">
<path d="M216 6.84309L200.422 0.365234L182.944 7.63374L165.465 0.365234L147.982 7.63374L130.504 0.365234L114.838 6.87581C113.392 7.42108 112.076 7.74825 111.311 7.74825C107.456 7.74825 105.567 6.24874 103.383 4.50932C101.013 2.62267 98.3214 0.485195 93.0414 0.485195C87.7614 0.485195 85.0804 2.56814 82.667 4.41117C80.2809 6.23238 78.2224 7.80277 73.8215 7.80277C69.4206 7.80277 67.3621 6.23784 64.9541 4.42753C62.5025 2.57905 59.7287 0.485195 54.405 0.485195C49.0813 0.485195 46.3075 2.57905 43.8559 4.42753C41.4534 6.23784 39.3731 7.80277 34.9886 7.80277C30.604 7.80277 28.5237 6.23784 26.1212 4.42753C23.6696 2.57905 20.8958 0.485195 15.5721 0.485195C10.2484 0.485195 7.47461 2.57905 5.02298 4.42753C3.45045 5.61077 2.01987 6.68496 -0.00585938 7.29022V10.1638C2.96995 9.46041 4.9247 7.99362 6.70472 6.65225C9.10721 4.84194 11.1821 3.277 15.5721 3.277C19.9621 3.277 22.0315 4.84194 24.4394 6.65225C26.8911 8.50073 29.6649 10.5946 34.9886 10.5946C40.3122 10.5946 43.086 8.50073 45.5377 6.65225C47.9401 4.84194 50.0205 3.277 54.405 3.277C58.7896 3.277 60.8699 4.84194 63.2724 6.65225C65.724 8.50073 68.4978 10.5946 73.8215 10.5946C79.1452 10.5946 81.9244 8.48982 84.3597 6.63043C86.713 4.83103 88.7497 3.28245 93.0359 3.28245C97.3222 3.28245 99.4298 4.94554 101.636 6.70132C103.902 8.50618 106.473 10.551 111.306 10.551C112.736 10.551 114.549 9.97842 115.865 9.48222L130.498 3.40241L147.976 10.6709L165.46 3.40241L182.938 10.6709L200.416 3.40241L215.994 9.88027V6.85945L216 6.84309Z" fill="#F2C724"/>
</svg>
