<svg width="251" height="70" viewBox="0 0 251 70" fill="none" xmlns="http://www.w3.org/2000/svg">
<g clip-path="url(#clip0_4_6682)">
<path d="M6.47691 26.5522C5.79291 26.4218 5.65637 26.2798 5.65637 26.0926C5.65637 26.0138 5.65637 25.7762 6.31956 25.7762C6.82931 25.7762 7.06208 25.9583 7.22202 26.1365L7.27404 26.1946L7.80719 25.7582L7.75127 25.6962C7.43008 25.3385 6.95544 25.1565 6.34037 25.1565C5.45741 25.1565 4.95027 25.5012 4.95027 26.1016C4.95027 26.7924 5.56665 27.0119 6.23504 27.1474C6.93984 27.2675 7.08418 27.4121 7.08418 27.5942C7.08418 27.8278 6.87092 27.9453 6.4522 27.9453C5.97756 27.9453 5.63557 27.8098 5.34428 27.5076L5.29227 27.4534L4.75781 27.8976L4.81373 27.9595C5.0634 28.2384 5.53674 28.5702 6.38198 28.5702C7.62254 28.5702 7.80849 27.9621 7.80849 27.5993C7.80849 26.9189 7.17001 26.6942 6.48081 26.5535L6.47691 26.5522Z" fill="white"/>
<path d="M6.37795 28.6335C5.5093 28.6335 5.01906 28.2901 4.76029 28.0008L4.66016 27.8885L5.29344 27.363L5.38837 27.4611C5.66665 27.7504 5.99434 27.8795 6.44947 27.8795C6.82658 27.8795 7.01643 27.7826 7.01643 27.5928C7.01643 27.4637 6.92021 27.3282 6.22061 27.2107C5.5236 27.0699 4.88122 26.8375 4.88122 26.1016C4.88122 25.4599 5.41177 25.0919 6.33634 25.0919C6.96962 25.0919 7.46116 25.2804 7.79536 25.6523L7.89679 25.7646L7.2635 26.2836L7.16988 26.1791C7.01904 26.0112 6.80057 25.8395 6.31553 25.8395C5.71736 25.8395 5.71736 26.0293 5.71736 26.0913C5.71736 26.2126 5.77718 26.3521 6.48588 26.4876H6.48718C7.20369 26.6335 7.86688 26.8698 7.86688 27.5967C7.86688 27.9841 7.67312 28.6322 6.37535 28.6322L6.37795 28.6335ZM4.84741 27.9027L4.85781 27.9143C5.09838 28.1829 5.55741 28.5031 6.37795 28.5031C7.56259 28.5031 7.73944 27.935 7.73944 27.5967C7.73944 26.9615 7.12567 26.7497 6.46378 26.6142C5.82529 26.4915 5.58992 26.3508 5.58992 26.0913C5.58992 25.8317 5.82789 25.7104 6.31813 25.7104C6.85389 25.7104 7.09966 25.904 7.26871 26.0925L7.27911 26.1042L7.71083 25.7504L7.69913 25.7375C7.39094 25.394 6.93191 25.2197 6.33764 25.2197C5.495 25.2197 5.01256 25.5399 5.01256 26.1003C5.01256 26.7084 5.5054 26.9331 6.24531 27.0828C6.8942 27.1926 7.14647 27.3359 7.14647 27.5928C7.14647 27.7826 7.02554 28.0086 6.44947 28.0086C5.95533 28.0086 5.59903 27.8679 5.29474 27.5502L5.28434 27.5399L4.84741 27.9027Z" fill="white"/>
<path d="M0.113281 23.3192L6.32777 34.0072L12.5436 23.3192H0.113281ZM1.35384 24.0306H11.303L6.32907 32.5857L1.35384 24.0306Z" fill="white"/>
<path d="M6.32762 34.1376L0 23.2546H12.6552L6.32762 34.1363V34.1376ZM0.224965 23.3838L6.32762 33.8781L12.4303 23.3838H0.224965ZM6.32762 32.7148L1.24056 23.9661H11.4147L6.32762 32.7148ZM1.46552 24.0952L6.32762 32.4565L11.1897 24.0952H1.46552Z" fill="white"/>
<path d="M242.951 27.4637L242.956 27.6084C242.979 28.1777 243.011 29.0041 243.027 29.6677C242.882 29.474 242.731 29.2726 242.577 29.0686C242.179 28.5418 241.768 27.997 241.432 27.5012L241.408 27.4637H240.539V27.549C240.548 28.334 240.552 30.0783 240.539 30.6645V30.7497H241.275L241.27 30.6606C241.231 30.0318 241.209 29.2184 241.192 28.5651L241.187 28.3546C241.466 28.7252 241.761 29.1345 242.047 29.5334C242.356 29.9608 242.647 30.3649 242.914 30.7161L242.938 30.7497H243.626V30.6658C243.626 29.9763 243.647 28.3495 243.664 27.5503V27.465H242.951V27.4637Z" fill="white"/>
<path d="M243.691 30.8143H242.906L242.861 30.7549C242.592 30.4011 242.302 29.9983 241.994 29.5709L241.984 29.5567C241.743 29.2223 241.495 28.8776 241.257 28.5574V28.5638C241.274 29.2158 241.296 30.0267 241.335 30.6567L241.345 30.8143H240.473L240.475 30.6632C240.487 30.0822 240.484 28.3379 240.475 27.5503V27.4005H241.443L241.487 27.4664C241.822 27.9609 242.232 28.5044 242.63 29.0312L242.646 29.0519C242.751 29.1926 242.856 29.3308 242.958 29.4663C242.941 28.8582 242.913 28.1636 242.894 27.642L242.885 27.4005H243.734L243.731 27.5516C243.714 28.3508 243.694 29.9776 243.694 30.6658V30.8143H243.691ZM242.971 30.6852H243.561V30.6658C243.561 29.9763 243.582 28.3482 243.599 27.549V27.5296H243.019L243.023 27.6368C243.046 28.2178 243.077 29.0144 243.092 29.6664L243.097 29.8704L242.975 29.7065C242.835 29.5193 242.688 29.3256 242.54 29.128L242.525 29.1074C242.127 28.5806 241.715 28.0345 241.378 27.5374L241.373 27.5283H240.604V27.5477C240.613 28.3366 240.616 30.0822 240.604 30.6645V30.6839H241.205V30.6632C241.164 30.0305 241.142 29.2184 241.125 28.5651L241.115 28.152L241.237 28.3146C241.513 28.6813 241.806 29.0867 242.089 29.4792L242.099 29.4934C242.406 29.9195 242.696 30.3223 242.964 30.6748L242.969 30.6826L242.971 30.6852Z" fill="white"/>
<path d="M242.101 21.9415L235.887 32.6295H248.317L242.103 21.9415H242.101ZM242.101 23.3644L247.075 31.9194H237.126L242.1 23.3644H242.101Z" fill="white"/>
<path d="M248.429 32.6954H235.773L242.101 21.8137L248.429 32.6954ZM235.998 32.5663H248.204L242.101 22.0719L235.998 32.5663ZM247.188 31.984H237.014L242.101 23.2353L247.188 31.984ZM237.239 31.8549H246.963L242.101 23.4935L237.239 31.8549Z" fill="white"/>
<path d="M4.15764 43.1496L13.5047 53.4064H15.5489V39.8004H13.6647V49.6879L4.7155 39.8004H2.24609V53.4064H4.15764V43.1496Z" fill="white"/>
<path d="M35.5545 51.7447H25.305V47.1831H30.8277V45.5756H25.305V41.435H34.998V39.8004H22.543V53.4064H35.5545V51.7447Z" fill="white"/>
<path d="M48.918 53.4064L56.3535 39.8004H54.2027L48.5994 50.7428L43.156 39.8004H40.0234L47.0598 53.4064H48.918Z" fill="white"/>
<path d="M64.3714 39.8004H61.6094V53.4051H64.3714V39.8004Z" fill="white"/>
<path d="M83.2272 49.6879L74.278 39.8004H71.8086V53.4064H73.7201V43.1496L83.0685 53.4064H85.1127V39.8004H83.2272V49.6879Z" fill="white"/>
<path d="M99.1416 45.0475C97.3887 44.9417 94.2561 44.8887 94.2561 43.1754C94.2561 41.3304 96.6995 40.9611 98.4251 40.9611C100.683 40.9611 102.727 41.6467 104.135 42.4898L105.118 41.0657C103.631 40.1955 101.507 39.3782 98.2938 39.3782C95.0806 39.3782 91.814 40.5118 91.814 43.6492C91.814 46.7867 95.6904 47.3406 98.7983 47.3935C100.817 47.4465 103.393 47.7628 103.393 49.6607C103.393 51.5587 101.242 52.2185 98.693 52.2185C95.6124 52.2185 93.355 50.9261 92.0806 49.9771L90.9922 51.3741C92.5851 52.4819 95.1079 53.8259 98.8256 53.8259C101.986 53.8259 105.943 52.6136 105.943 49.3173C105.943 46.021 102.145 45.125 99.1442 45.0462L99.1416 45.0475Z" fill="white"/>
<path d="M133.916 51.7575H125.604V39.8146H122.844V53.4192H133.916V51.7575Z" fill="white"/>
<path d="M151.691 49.8596L153.655 53.4192H156.762L149.22 39.8146H146.697L139.129 53.4192H141.333L143.191 49.8596H151.689H151.691ZM147.362 41.923L150.893 48.3825H143.936L147.362 41.923Z" fill="white"/>
<path d="M175.355 39.8146H173.469V49.7008L164.52 39.8146H162.051V53.4192H163.962V43.1625L173.309 53.4192H175.355V39.8146Z" fill="white"/>
<path d="M198.062 46.5105C198.062 44.6654 197.213 43.0825 195.99 41.976C194.451 40.579 192.379 39.8134 189.378 39.8134H182.633V53.418H189.404C192.085 53.418 194.263 52.7324 195.777 51.3884C197.131 50.2289 198.06 48.6202 198.06 46.5105H198.062ZM189.033 51.8106H185.395V41.4221H188.687C191.024 41.4221 192.326 41.8972 193.6 43.0567C194.53 43.8998 195.14 44.9546 195.14 46.5105C195.14 49.2257 193.282 51.8106 189.032 51.8106H189.033Z" fill="white"/>
<path d="M206.875 39.8146H204.113V53.4192H206.875V39.8146Z" fill="white"/>
<path d="M228.039 53.4192V39.8146H226.153V49.7008L217.204 39.8146H214.734V53.4192H216.646V43.1625L225.993 53.4192H228.039Z" fill="white"/>
<path d="M247.478 50.9404C246.549 51.7047 245.3 52.3115 243.23 52.3115C239.778 52.3115 237.016 50.1489 237.016 46.801C237.016 43.4531 239.299 40.8682 242.991 40.8682C245.354 40.8682 247 41.8443 248.567 42.978L249.894 41.6597C248.036 40.2627 246.204 39.3137 242.991 39.3137C238.078 39.3137 233.988 42.5829 233.988 46.8023C233.988 51.0217 238.237 53.8945 242.831 53.8945C246.442 53.8945 248.965 52.3916 250.213 51.205V46.486H247.478V50.9417V50.9404Z" fill="white"/>
<path d="M56.8476 63.7961C55.9035 65.7315 54.8554 67.9084 53.8242 69.8696H55.1259C55.3092 69.3919 55.5186 68.8716 55.7644 68.3164C56.1753 68.2906 56.7956 68.2725 57.4067 68.2725C58.0179 68.2725 58.6733 68.2893 59.0673 68.3074C59.2767 68.8186 59.4873 69.3312 59.6967 69.8696H61.0426C60.0556 67.9084 59.1024 65.9213 58.1584 63.7961H56.8476ZM57.4861 67.4488C57.04 67.4488 56.5953 67.4397 56.1493 67.4229C56.5342 66.5553 56.962 65.6102 57.425 64.638C57.8788 65.5831 58.2897 66.4946 58.6915 67.432C58.2897 67.441 57.8879 67.4488 57.4861 67.4488Z" fill="white"/>
<path d="M65.0604 64.7335V66.8329C65.0604 67.8477 65.0604 68.8548 65.0513 69.8696H66.1606C66.1436 68.8548 66.1345 67.8477 66.1345 66.8329C66.1345 66.1305 66.1345 65.4268 66.1436 64.7335C66.9915 64.7245 67.7249 64.7774 68.7483 64.82V63.7961H62.5V64.82C63.5052 64.7761 64.2295 64.7245 65.0604 64.7335Z" fill="white"/>
<path d="M79.6257 64.638C80.77 64.638 81.5047 65.0886 81.9507 65.5921L82.6855 64.7942C82.021 64.1435 81.2264 63.6658 79.627 63.6658C77.3461 63.6658 76.1836 64.9763 76.1836 66.8846C76.1836 68.7929 77.4164 69.991 79.5828 69.991C81.3214 69.991 82.8155 69.1324 82.8155 67.0666V66.616C81.7843 66.625 80.7622 66.616 79.7401 66.5553V67.4927C80.4475 67.441 81.138 67.4062 81.8285 67.3881C81.7583 68.5501 80.8233 69.0188 79.5997 69.0188C78.1316 69.0188 77.2928 68.2984 77.2928 66.8148C77.2928 65.4527 78.0795 64.6367 79.6257 64.6367V64.638Z" fill="white"/>
<path d="M89.0203 69.991C91.3531 69.991 92.5248 68.6895 92.5248 66.7812C92.5248 64.8729 91.266 63.667 89.0645 63.667C86.8629 63.667 85.6211 64.9775 85.6211 66.7902C85.6211 68.8199 86.8539 69.9922 89.0203 69.9922V69.991ZM89.0645 64.6379C90.5586 64.6379 91.4065 65.3493 91.4065 66.798C91.4065 68.2466 90.6197 69.0278 89.0385 69.0278C87.5704 69.0278 86.7407 68.2996 86.7407 66.807C86.7407 65.4539 87.5183 64.6379 89.0658 64.6379H89.0645Z" fill="white"/>
<path d="M102.074 69.8696H103.087C103.944 67.8568 104.668 65.8955 105.56 63.7961H104.214C103.777 65.4449 103.218 67.0059 102.676 68.585C102.011 66.9891 101.269 65.392 100.726 63.7961H99.4508L97.7382 68.5243C97.0737 66.8755 96.5237 65.3752 95.9905 63.7961H94.7148C95.5367 65.8529 96.2701 67.7522 97.0308 69.8696H98.0971L99.941 64.8549C100.641 66.5114 101.444 68.195 102.074 69.8696Z" fill="white"/>
<path d="M107.105 69.8696H108.407C108.59 69.3919 108.8 68.8716 109.046 68.3164C109.457 68.2906 110.077 68.2725 110.688 68.2725C111.299 68.2725 111.955 68.2893 112.349 68.3074C112.558 68.8186 112.769 69.3312 112.978 69.8696H114.324C113.337 67.9084 112.384 65.9213 111.44 63.7961H110.129C109.185 65.7315 108.137 67.9084 107.105 69.8696ZM111.973 67.432C111.571 67.441 111.169 67.4488 110.767 67.4488C110.321 67.4488 109.877 67.4397 109.431 67.4229C109.815 66.5553 110.243 65.6102 110.706 64.638C111.16 65.5831 111.571 66.4946 111.973 67.432Z" fill="white"/>
<path d="M123.334 69.8696C123.334 68.5333 123.379 65.3662 123.412 63.7961H122.268C122.32 65.0201 122.408 67.0408 122.434 68.4378C121.281 66.9891 119.813 65.2797 118.721 63.7961H117.156C117.173 65.2538 117.182 68.7063 117.156 69.8696H118.345C118.239 68.3345 118.197 66.2687 118.152 64.8639C119.446 66.4081 120.94 68.4119 122.146 69.8696H123.334Z" fill="white"/>
<path d="M130.235 69.9651C132.297 69.9651 133.18 68.8457 133.18 67.2847C133.18 65.4887 133.18 64.3784 133.197 63.7974H132.088C132.097 64.8212 132.104 65.7147 132.104 66.9116C132.104 68.5862 131.554 68.9942 130.305 68.9942C128.968 68.9942 128.47 68.4209 128.47 66.9723C128.47 65.9665 128.461 64.7425 128.496 63.7974H127.387C127.422 64.8561 127.396 65.7237 127.396 67.3544C127.396 69.0807 128.409 69.9664 130.236 69.9664L130.235 69.9651Z" fill="white"/>
<path d="M140.001 69.0278C138.646 69.0278 137.833 68.6547 137.24 68.1253L136.559 68.9233C137.214 69.5572 138.245 69.9988 139.791 69.9988C141.845 69.9988 142.666 69.2964 142.666 68.2118C142.666 67.1273 141.811 66.5631 139.932 66.3552C138.341 66.1899 137.888 65.9304 137.888 65.4011C137.888 64.9065 138.308 64.6109 139.574 64.6109C140.718 64.6109 141.444 64.9672 141.881 65.4088L142.572 64.6109C141.925 64.0208 141.06 63.6658 139.644 63.6658C137.88 63.6658 136.849 64.2558 136.849 65.4011C136.849 66.5463 137.713 67.0498 139.47 67.2409C141.253 67.3881 141.594 67.7096 141.594 68.186C141.594 68.7063 141.174 69.0278 140.003 69.0278H140.001Z" fill="white"/>
<path d="M154.14 69.8696L155.984 64.8549C156.684 66.5114 157.487 68.195 158.117 69.8696H159.13C159.987 67.8568 160.711 65.8955 161.603 63.7961H160.257C159.82 65.4449 159.261 67.0059 158.719 68.585C158.054 66.9891 157.312 65.392 156.769 63.7961H155.494L153.781 68.5243C153.117 66.8755 152.567 65.3752 152.033 63.7961H150.758C151.58 65.8529 152.313 67.7522 153.074 69.8696H154.14Z" fill="white"/>
<path d="M165.622 69.8696C165.605 69.0369 165.596 68.195 165.596 67.3622C166.959 67.3364 168.279 67.3364 169.493 67.3622C169.493 68.195 169.493 69.0369 169.484 69.8696H170.594C170.568 67.8477 170.568 65.8181 170.594 63.7961H169.484C169.493 64.6728 169.493 65.5482 169.493 66.4339C168.2 66.4597 166.898 66.4597 165.596 66.4249C165.596 65.5482 165.605 64.6728 165.622 63.7961H164.504C164.53 65.8181 164.53 67.8477 164.504 69.8696H165.622Z" fill="white"/>
<path d="M175.346 68.3164C175.757 68.2906 176.378 68.2725 176.989 68.2725C177.6 68.2725 178.255 68.2893 178.649 68.3074C178.859 68.8186 179.069 69.3312 179.279 69.8696H180.625C179.638 67.9084 178.684 65.9213 177.74 63.7961H176.43C175.486 65.7315 174.437 67.9084 173.406 69.8696H174.708C174.891 69.3919 175.101 68.8716 175.346 68.3164ZM177.007 64.638C177.461 65.5831 177.872 66.4946 178.274 67.432C177.872 67.441 177.47 67.4488 177.068 67.4488C176.622 67.4488 176.177 67.4397 175.731 67.4229C176.116 66.5553 176.544 65.6102 177.007 64.638Z" fill="white"/>
<path d="M189.683 69.6966C188.687 68.838 187.778 67.7535 187.271 67.2499C188.363 67.024 188.923 66.4339 188.923 65.6012C188.913 64.3604 188.066 63.7355 186.223 63.7355C185.41 63.7355 184.196 63.7613 183.47 63.7962H183.461C183.478 64.8019 183.478 65.8181 183.478 66.8329C183.478 67.8477 183.478 68.8548 183.461 69.8696H184.57C184.561 69.0188 184.553 68.1692 184.544 67.3184C185.016 67.3351 185.714 67.3532 186.082 67.3532C187.105 68.4468 187.76 69.3222 188.223 69.8696H189.682V69.6966H189.683ZM184.545 66.3991C184.545 65.8181 184.555 65.2371 184.562 64.6638C184.929 64.638 185.419 64.6289 186.153 64.6199C187.132 64.6199 187.813 64.8368 187.804 65.6089C187.804 66.2687 187.236 66.4765 186.266 66.4765C185.532 66.4765 184.972 66.4417 184.544 66.3991H184.545Z" fill="white"/>
<path d="M194.131 69.8696C194.114 69.0459 194.105 68.2209 194.105 67.3971C194.813 67.3971 196.168 67.4836 197.767 67.5624V66.5902H194.105C194.105 65.9562 194.114 65.3236 194.114 64.6896C195.521 64.6638 196.771 64.7064 198.484 64.811V63.7961H193.031C193.048 65.8181 193.048 67.8477 193.031 69.8696H194.133H194.131Z" fill="white"/>
<path d="M128.27 0V24.2733H152.696V0H128.27ZM151.96 2.49447L150.185 0.732072H151.96V2.49447ZM151.96 5.44987L147.207 0.730781H149.081L151.96 3.58935V5.44987ZM151.96 8.40527L144.23 0.730781H146.104L151.96 6.54475V8.40527ZM151.96 11.362L141.254 0.732072H143.128L151.96 9.50144V11.362ZM140.739 12.391H151.96V23.5412H140.739V12.391ZM140.739 10.1832L142.449 11.881H140.739V10.1832ZM140.739 7.22776L145.427 11.8823H143.553L140.739 9.08828V7.22776ZM140.739 4.27236L148.403 11.8823H146.529L140.739 6.13288V4.27236ZM140.739 1.31566L151.38 11.881H149.506L140.738 3.17618V1.31566H140.739ZM138.488 23.5412L140.226 21.815V23.5412H138.488ZM135.511 23.5412L140.226 18.8596V20.7201L137.385 23.5412H135.511ZM132.535 23.5412L140.228 15.9029V17.7634L134.409 23.5412H132.535ZM129.557 23.5412L140.226 12.9475V14.808L131.431 23.5412H129.557ZM129.006 21.1332L137.81 12.391H139.684L129.007 22.9938V21.1332H129.006ZM129.006 18.1766L134.833 12.391H136.706L129.006 20.0371V18.1766ZM129.006 15.2212L131.856 12.391H133.73L129.006 17.0817V15.2212ZM129.006 12.391H130.753L129.006 14.1263V12.391ZM129.006 0.732072H140.226V11.8823H129.006V0.732072Z" fill="white"/>
<path d="M99.7656 0V24.263H124.202V0H99.7656ZM116.193 0.711414H118.351L116.193 2.8534V0.711414ZM116.193 3.94957L119.455 0.711414H121.466L116.193 5.94695V3.94957ZM108.287 8.46079H110.547L108.287 10.7048V8.46079ZM108.287 11.8009L111.65 8.46208H113.661L108.287 13.7983V11.8009ZM100.482 2.75269L105.719 7.95208H103.707L100.481 4.74878V2.7514L100.482 2.75269ZM100.482 5.84495L102.604 7.95208H100.482V5.84495ZM100.482 16.3122H102.639L100.482 18.4541V16.3122ZM100.482 19.5503L103.743 16.3122H105.755L100.482 21.5477V19.5503ZM107.775 23.5528H105.795L107.775 21.5877V23.5528ZM107.775 20.4916L104.691 23.5528H102.68L107.775 18.4942V20.4916ZM107.775 17.3993L101.577 23.5528H100.482V22.6426L106.858 16.3122H107.775V17.3993ZM107.775 15.8035H100.482V8.46208H107.775V15.8035ZM107.775 7.95208H106.823L100.482 1.65652V0.711414H101.542L107.775 6.89981V7.95208ZM107.775 5.80493L102.645 0.711414H104.656L107.775 3.80755V5.80493ZM107.775 2.71267L105.759 0.711414H107.775V2.71267ZM115.681 23.5528H108.287V16.3122H115.681V23.5528ZM115.681 15.8035H113.599L115.681 13.7364V15.8035ZM115.681 12.6415L115.352 12.9681L112.496 15.8035H110.485L114.345 11.9701L115.681 10.6441V12.6415ZM115.681 9.54792L113.794 11.4214L109.381 15.8035H108.286V14.8932L114.763 8.46208H115.68V9.54921L115.681 9.54792ZM115.681 7.95208H108.287V0.711414H115.681V7.95208ZM116.193 23.5528V21.4457L118.315 23.5528H116.193ZM119.419 23.5528L116.193 20.3495V18.3521L121.43 23.5515H119.418L119.419 23.5528ZM123.486 23.5528H122.534L116.193 17.2573V16.3122H117.253L123.486 22.5006V23.5528ZM123.486 21.4057L118.356 16.3122H120.367L123.486 19.4083V21.4057ZM123.486 18.3134L121.47 16.3122H123.486V18.3134ZM123.486 15.8035H116.193V8.46208H123.486V15.8035ZM123.486 7.95208H121.507L123.486 5.98698V7.95208ZM123.486 4.89081L120.403 7.95208H118.391L118.828 7.51826L123.486 2.89343V4.89081ZM123.486 1.79855L118.276 6.97082L117.288 7.95208H116.193V7.04183L122.569 0.711414H123.486V1.79855Z" fill="white"/>
</g>
<defs>
<clipPath id="clip0_4_6682">
<rect width="250.213" height="70" fill="white"/>
</clipPath>
</defs>
</svg>
