<svg width="382" height="84" viewBox="0 0 382 84" fill="none" xmlns="http://www.w3.org/2000/svg">
<g clip-path="url(#clip0_605_560)">
<path d="M5.18697 67.2645L19.4909 83.0728H22.6191V62.1025H19.7336V77.3417L6.03868 62.1025H2.26172V83.0728H5.18697V67.2645Z" fill="white"/>
<path d="M53.2407 80.5097H37.5518V73.4812H46.0052V71.0017H37.5518V64.6218H52.385V62.1025H33.3291V83.0728H53.2407V80.5097Z" fill="white"/>
<path d="M73.6852 83.0728L85.0638 62.1025H81.7724L73.1957 78.9655L64.8656 62.1025H60.0698L70.8395 83.0728H73.6852Z" fill="white"/>
<path d="M97.3341 62.1025H93.1074V83.0728H97.3341V62.1025Z" fill="white"/>
<path d="M126.189 77.3417L112.498 62.1025H108.717V83.0728H111.642V67.2645L125.946 83.0728H129.074V62.1025H126.189V77.3417Z" fill="white"/>
<path d="M150.542 70.1891C147.86 70.0259 143.064 69.9463 143.064 67.3036C143.064 64.458 146.801 63.8888 149.444 63.8888C152.898 63.8888 156.026 64.9435 158.18 66.245L159.684 64.052C157.407 62.7108 154.156 61.4531 149.241 61.4531C144.325 61.4531 139.327 63.2003 139.327 68.0359C139.327 72.8716 145.261 73.7233 150.013 73.8068C153.101 73.8864 157.041 74.376 157.041 77.3012C157.041 80.2265 153.75 81.2414 149.85 81.2414C145.137 81.2414 141.683 79.2514 139.733 77.7868L138.065 79.9399C140.505 81.6473 144.365 83.7209 150.053 83.7209C154.888 83.7209 160.942 81.8503 160.942 76.7719C160.942 71.6935 155.131 70.3125 150.538 70.1891H150.542Z" fill="white"/>
<path d="M203.762 80.5342H191.042V62.123H186.815V83.0933H203.762V80.5342Z" fill="white"/>
<path d="M230.961 77.6041L233.97 83.0884H238.726L227.184 62.1182H223.323L211.742 83.0884H215.113L217.958 77.6041H230.961ZM224.338 65.3738L229.743 75.3315H219.097L224.338 65.3738Z" fill="white"/>
<path d="M267.17 62.123H264.284V77.3622L250.589 62.123H246.812V83.0933H249.738V67.285L264.042 83.0933H267.17V62.123Z" fill="white"/>
<path d="M301.918 72.4469C301.918 69.6013 300.617 67.1655 298.75 65.4582C296.394 63.305 293.222 62.127 288.633 62.127H278.313V83.0972H288.677C292.781 83.0972 296.116 82.0426 298.432 79.969C300.506 78.182 301.926 75.7025 301.926 72.4509L301.918 72.4469ZM288.1 80.6138H282.532V64.6025H287.571C291.149 64.6025 293.139 65.3348 295.089 67.1218C296.51 68.4232 297.445 70.047 297.445 72.4469C297.445 76.6338 294.599 80.6138 288.1 80.6138Z" fill="white"/>
<path d="M315.411 62.123H311.185V83.0933H315.411V62.123Z" fill="white"/>
<path d="M347.795 83.0933V62.123H344.91V77.3622L331.215 62.123H327.438V83.0933H330.363V67.285L344.667 83.0933H347.795Z" fill="white"/>
<path d="M377.541 79.2722C376.121 80.4503 374.21 81.3856 371.038 81.3856C365.757 81.3856 361.53 78.0544 361.53 72.8924C361.53 67.7304 365.025 63.7505 370.672 63.7505C374.29 63.7505 376.809 65.2549 379.205 67.0021L381.235 64.9683C378.389 62.8152 375.587 61.3506 370.668 61.3506C363.15 61.3506 356.894 66.3892 356.894 72.8924C356.894 79.3956 363.397 83.8253 370.425 83.8253C375.953 83.8253 379.814 81.509 381.72 79.6822V72.4068H377.534V79.2762L377.541 79.2722Z" fill="white"/>
<path d="M0.896484 37.7969H16.1237L8.5101 50.9824L0.896484 37.7969Z" fill="white" stroke="white" stroke-width="0.198997" stroke-miterlimit="10"/>
<path d="M369.315 36.7705L376.924 49.956H361.701L369.315 36.7705Z" fill="white" stroke="white" stroke-width="0.198997" stroke-miterlimit="10"/>
<path d="M195.217 0.759766V38.1712H232.596V0.759766H195.217ZM214.297 19.8555H231.466V37.0409H214.297V19.8555ZM196.343 1.88609H213.513V19.0714H196.343V1.88609Z" fill="white"/>
<path d="M151.498 0.759766V38.207H188.945V0.759766H151.498ZM163.851 25.0732H152.52V13.8975H163.851V25.0732ZM175.891 37.1165H164.56V25.9408H175.891V37.1165ZM175.891 13.0259H164.56V1.85027H175.891V13.0259ZM187.93 25.0732H176.599V13.8975H187.93V25.0732Z" fill="white"/>
</g>
<defs>
<clipPath id="clip0_605_560">
<rect width="381.003" height="83.0652" fill="white" transform="translate(0.725098 0.759766)"/>
</clipPath>
</defs>
</svg>
