<svg width="109" height="65" viewBox="0 0 109 65" fill="none" xmlns="http://www.w3.org/2000/svg">
<g clip-path="url(#clip0_599_5457)">
<g clip-path="url(#clip1_599_5457)">
<path d="M18.6928 14.9229L22.8563 7.7124H14.5315L18.695 14.9229H18.6928Z" fill="white"/>
<path d="M12.3463 37.2357L20.1683 45.8804H21.8812V34.4128H20.3033V42.7464L12.8142 34.4128H10.7466V45.8804H12.3463V37.2357Z" fill="white"/>
<path d="M27.7358 45.8804H38.6245V44.481H30.0472V40.6352H34.6699V39.2793H30.0472V35.7905H38.1587V34.4128H27.7358V45.8804Z" fill="white"/>
<path d="M54.2272 34.4128L49.5392 43.6365L44.9839 34.4128H42.3613L48.2507 45.8804H49.8047L56.0271 34.4128H54.2272Z" fill="white"/>
<path d="M62.7371 34.4128H60.4258V45.8804H62.7371V34.4128Z" fill="white"/>
<path d="M80.0965 45.8804V34.4128H78.5186V42.7464L71.0295 34.4128H68.9641V45.8804H70.5638V37.2357L78.3859 45.8804H80.0965Z" fill="white"/>
<path d="M91.2353 35.3922C93.1245 35.3922 94.8352 35.9689 96.0126 36.6806L96.8353 35.4814C95.5904 34.7479 93.8122 34.0602 91.1243 34.0602C88.4365 34.0602 85.7029 35.0156 85.7029 37.66C85.7029 40.3043 88.9479 40.7701 91.5466 40.8158C93.2355 40.8593 95.3901 41.127 95.3901 42.7267C95.3901 44.3264 93.5902 44.8814 91.4573 44.8814C88.8804 44.8814 86.9913 43.7932 85.9249 42.9922L85.0129 44.1697C86.3471 45.1034 88.4582 46.2373 91.5683 46.2373C94.2127 46.2373 97.523 45.2144 97.523 42.4372C97.523 39.6601 94.3455 38.9049 91.8339 38.8374C90.3669 38.7482 87.7444 38.7047 87.7444 37.2595C87.7444 35.7034 89.788 35.3922 91.2332 35.3922H91.2353Z" fill="white"/>
<path d="M10.181 62.9741H3.22518V52.9081H0.913818V64.3735H10.181V62.9741Z" fill="white"/>
<path d="M25.0546 61.3744L26.7 64.3735H29.3008L22.9892 52.9059H20.8781L14.5447 64.3735H16.3881L17.9443 61.3744H25.0546ZM21.4331 54.684L24.3887 60.1294H18.5667L21.4331 54.684Z" fill="white"/>
<path d="M44.8577 52.9081H43.2798V61.2394L35.7907 52.9081H33.7231V64.3735H35.3228V55.7287L43.1449 64.3735H44.8577V52.9081Z" fill="white"/>
<path d="M61.9472 62.6628C63.0811 61.6856 63.8581 60.3297 63.8581 58.5516C63.8581 56.9954 63.1464 55.6634 62.1257 54.7298C60.8372 53.5523 59.1026 52.9081 56.5932 52.9081H50.9497V64.3757H56.6171C58.861 64.3757 60.6849 63.7989 61.9515 62.665L61.9472 62.6628ZM53.2589 63.0176V54.2618H56.0143C57.9709 54.2618 59.0591 54.6623 60.1255 55.6395C60.9025 56.3512 61.414 57.2392 61.414 58.5516C61.414 60.8412 59.8578 63.0176 56.3037 63.0176H53.2589Z" fill="white"/>
<path d="M71.2362 52.9081H68.9248V64.3757H71.2362V52.9081Z" fill="white"/>
<path d="M88.9457 64.3735V52.9081H87.3699V61.2394L79.8808 52.9081H77.8132V64.3735H79.4129V55.7287L87.235 64.3735H88.9457Z" fill="white"/>
<path d="M93.9231 58.7953C93.9231 62.3516 97.4793 64.7739 101.323 64.7739C104.346 64.7739 106.457 63.5073 107.5 62.5083V58.5298H105.21V62.2863C104.433 62.9305 103.388 63.442 101.654 63.442C98.7656 63.442 96.4542 61.6203 96.4542 58.7975C96.4542 55.9747 98.3651 53.7982 101.453 53.7982C103.432 53.7982 104.81 54.6209 106.12 55.5764L107.23 54.4642C105.674 53.2868 104.141 52.4858 101.451 52.4858C97.34 52.4858 93.9187 55.2412 93.9187 58.7975L93.9231 58.7953Z" fill="white"/>
<path d="M93.638 14.1916H85.311L89.4745 6.98108L93.638 14.1916Z" fill="white"/>
<path d="M55.8508 0.773926V21.2323H76.2918V0.773926H55.8508ZM66.2868 11.2164H75.6759V20.6142H66.2868V11.2164ZM56.4668 1.38985H65.8559V10.7877H56.4668V1.38985Z" fill="white"/>
<path d="M31.9453 0.773926V21.2519H52.4233V0.773926H31.9453ZM38.6988 14.0697H32.5025V7.95831H38.6988V14.0697ZM45.2825 20.6556H39.0862V14.5442H45.2825V20.6556ZM45.2825 7.48167H39.0862V1.37027H45.2825V7.48167ZM51.8661 14.0697H45.6699V7.95831H51.8661V14.0697Z" fill="white"/>
</g>
</g>
<defs>
<clipPath id="clip0_599_5457">
<rect width="107.034" height="64" fill="white" transform="translate(0.982666 0.773926)"/>
</clipPath>
<clipPath id="clip1_599_5457">
<rect width="106.588" height="64" fill="white" transform="translate(0.913818 0.773926)"/>
</clipPath>
</defs>
</svg>
