<svg width="195" height="58" viewBox="0 0 195 58" fill="none" xmlns="http://www.w3.org/2000/svg">
<g clip-path="url(#clip0_375_34282)">
<g clip-path="url(#clip1_375_34282)">
<g clip-path="url(#clip2_375_34282)">
<path d="M9.89373 39.334C9.89373 41.2524 8.78528 42.6374 5.88682 42.6374C3.35054 42.6374 2.22122 41.2524 2.22122 39.4404V32.6624H0.0471191V39.334C0.0471191 40.5489 0.239167 41.6354 1.43216 42.6374C2.32768 43.4046 3.71272 43.9588 5.78036 43.9588C7.848 43.9588 9.23304 43.3837 10.0858 42.6155C11.1723 41.6135 11.4071 40.4633 11.4071 39.3329V32.6614H9.89373V39.3329V39.334Z" fill="white"/>
<path d="M18.8588 35.3694L26.3611 43.6608H28.0029V32.663H26.4895V40.6549L19.3065 32.663H17.3245V43.6608H18.8588V35.3694Z" fill="white"/>
<path d="M36.4742 32.663H34.2573V43.6608H36.4742V32.663Z" fill="white"/>
<path d="M48.6731 44.0441C52.5735 44.0441 55.7496 41.4223 55.7496 38.1616C55.7496 34.901 52.5735 32.2572 48.6731 32.2572C44.7726 32.2572 41.5966 34.8999 41.5966 38.1616C41.5966 41.4233 44.7935 44.0441 48.6731 44.0441ZM48.6731 33.4732C51.6143 33.4732 53.2979 35.5408 53.2979 38.1627C53.2979 40.7845 51.6143 42.8522 48.6731 42.8522C45.7318 42.8522 43.9836 40.8064 43.9836 38.1627C43.9836 35.5189 45.7099 33.4732 48.6731 33.4732Z" fill="white"/>
<path d="M62.0577 35.3694L69.5612 43.6608H71.2019V32.663H69.6885V40.6549L62.5055 32.663H60.5234V43.6608H62.0577V35.3694Z" fill="white"/>
<path d="M91.741 33.5472C93.9579 33.5472 95.3857 34.4208 96.5369 35.4228L97.5598 34.3999C96.1956 33.2278 94.1927 32.2686 91.8266 32.2686C87.4784 32.2686 84.5162 34.8905 84.5162 38.2795C84.5162 41.6685 87.8625 44.0555 91.8485 44.0555C94.8534 44.0555 96.3668 43.0535 97.6673 42.0307L96.6445 41.0078C95.5788 41.8606 94.2783 42.777 92.1042 42.777C89.3759 42.777 86.9461 41.0287 86.9461 38.2795C86.9461 35.5303 89.2057 33.5482 91.742 33.5482L91.741 33.5472Z" fill="white"/>
<path d="M102.951 32.6735V43.6714H105.167V38.5769H111.945V43.6714H114.119V32.6735H111.945V37.3411H105.167V32.6735H102.951Z" fill="white"/>
<path d="M120.179 43.6714L121.671 40.7938H128.492L130.069 43.6714H132.562L126.509 32.6735H124.484L118.409 43.6714H120.178H120.179ZM125.018 34.379L127.853 39.6008H122.269L125.018 34.379Z" fill="white"/>
<path d="M138.38 35.3799L145.882 43.6714H147.523V32.6735H146.01V40.6665L138.827 32.6735H136.844V43.6714H138.38V35.3799Z" fill="white"/>
<path d="M154.876 35.3799L162.379 43.6714H164.021V32.6735H162.507V40.6665L155.324 32.6735H153.342V43.6714H154.876V35.3799Z" fill="white"/>
<path d="M180.08 42.3281H171.852V38.6416H176.286V37.3411H171.852V33.9949H179.632V32.6735H169.635V43.6714H180.08V42.3281Z" fill="white"/>
<path d="M194.181 42.3281H187.51V32.6735H185.294V43.6714H194.181V42.3281Z" fill="white"/>
<path d="M40.6456 55.6727C40.9755 55.6518 41.4733 55.6372 41.9639 55.6372C42.4544 55.6372 42.9805 55.6508 43.2967 55.6654C43.4648 56.0787 43.6339 56.4931 43.8019 56.9283H44.8822C44.09 55.3429 43.3249 53.7365 42.5672 52.0186H41.5151C40.7573 53.5831 39.9161 55.3429 39.0884 56.9283H40.1332C40.2803 56.5421 40.4484 56.1215 40.6456 55.6727ZM41.9785 52.6991C42.3427 53.4641 42.6726 54.2 42.9951 54.9577C42.6726 54.965 42.3501 54.9713 42.0275 54.9713C41.6695 54.9713 41.3126 54.964 40.9546 54.9504C41.2635 54.249 41.6069 53.485 41.9785 52.6991Z" fill="white"/>
<path d="M51.0676 52.8462V52.0186H46.0525V52.8462C46.8593 52.8108 47.4407 52.769 48.1076 52.7763V54.4734C48.1076 55.2938 48.1076 56.1079 48.1003 56.9283H48.9906C48.977 56.1079 48.9697 55.2938 48.9697 54.4734C48.9697 53.9056 48.9697 53.3368 48.977 52.7763C49.6576 52.769 50.2462 52.8118 51.0676 52.8462Z" fill="white"/>
<path d="M59.763 57.0262C61.1585 57.0262 62.3577 56.3322 62.3577 54.6622V54.2969C61.53 54.3042 60.7097 54.2969 59.8893 54.2478V55.0056C60.4571 54.9638 61.0113 54.9356 61.5655 54.921C61.5092 55.8604 60.7587 56.2393 59.7766 56.2393C58.5982 56.2393 57.925 55.6569 57.925 54.4576C57.925 53.3565 58.5564 52.6968 59.7974 52.6968C60.7159 52.6968 61.3056 53.0611 61.6636 53.4681L62.2533 52.8231C61.72 52.2971 61.0823 51.9109 59.7985 51.9109C57.9678 51.9109 57.0347 52.9703 57.0347 54.5129C57.0347 56.0556 58.0241 57.0242 59.763 57.0242V57.0262Z" fill="white"/>
<path d="M70.1496 54.4312C70.1496 52.8531 69.1393 51.9138 67.3722 51.9138C65.6052 51.9138 64.6084 52.9731 64.6084 54.4386C64.6084 56.0793 65.5979 57.027 67.3367 57.027C69.2092 57.027 70.1496 55.9749 70.1496 54.4323V54.4312ZM67.3513 56.2474C66.173 56.2474 65.5071 55.6587 65.5071 54.4521C65.5071 53.3583 66.1312 52.6986 67.3733 52.6986C68.6153 52.6986 69.253 53.2737 69.253 54.4448C69.253 55.6159 68.6216 56.2474 67.3524 56.2474H67.3513Z" fill="white"/>
<path d="M74.6243 56.9283L76.1043 52.8744C76.6659 54.2146 77.3109 55.5746 77.816 56.9283H78.6291C79.3169 55.3011 79.8983 53.7157 80.6143 52.0186H79.534C79.1833 53.3514 78.7345 54.6133 78.2993 55.8898C77.7659 54.5987 77.17 53.3086 76.7347 52.0186H75.7108L74.3362 55.8407C73.8029 54.5079 73.3614 53.295 72.9335 52.0186H71.9095C72.5692 53.6812 73.1579 55.2166 73.7684 56.9283H74.6243Z" fill="white"/>
<path d="M84.7291 55.6372C85.2416 55.6372 85.7457 55.6508 86.062 55.6654C86.23 56.0787 86.3991 56.4931 86.5672 56.9283H87.6474C86.8552 55.3429 86.0902 53.7365 85.3324 52.0186H84.2803C83.5226 53.5831 82.6813 55.3429 81.8536 56.9283H82.8984C83.0456 56.5421 83.2136 56.1215 83.4109 55.6727C83.7407 55.6518 84.2386 55.6372 84.7291 55.6372ZM84.7437 52.6991C85.108 53.4641 85.4378 54.2 85.7603 54.9577C85.4378 54.965 85.1153 54.9713 84.7928 54.9713C84.4348 54.9713 84.0778 54.964 83.7198 54.9504C84.0288 54.249 84.3722 53.485 84.7437 52.6991Z" fill="white"/>
<path d="M90.8728 56.9283C90.7883 55.6873 90.7538 54.0173 90.7183 52.8817C91.7568 54.13 92.9561 55.751 93.9236 56.9283H94.8776C94.8776 55.848 94.9131 53.2877 94.9402 52.0186H94.0218C94.0635 53.008 94.1345 54.6415 94.1554 55.7708C93.2296 54.5997 92.0512 53.2178 91.1744 52.0186H89.9188C89.9324 53.1969 89.9397 55.9889 89.9188 56.9283H90.8728Z" fill="white"/>
<path d="M98.1381 54.894C98.1381 56.2895 98.9512 57.0055 100.418 57.0055C102.073 57.0055 102.782 56.1006 102.782 54.8387C102.782 53.3869 102.782 52.4893 102.795 52.0196H101.905C101.912 52.8473 101.919 53.5695 101.919 54.5371C101.919 55.8908 101.477 56.2206 100.474 56.2206C99.401 56.2206 99.0013 55.7572 99.0013 54.5861C99.0013 53.772 98.994 52.7836 99.0221 52.0186H98.1318C98.16 52.8744 98.1391 53.5758 98.1391 54.894H98.1381Z" fill="white"/>
<path d="M108.259 56.2475C107.171 56.2475 106.519 55.9458 106.043 55.5179L105.496 56.1629C106.022 56.6754 106.85 57.0324 108.091 57.0324C109.739 57.0324 110.399 56.4646 110.399 55.5878C110.399 54.7111 109.712 54.255 108.204 54.0869C106.927 53.9534 106.563 53.7436 106.563 53.3156C106.563 52.9159 106.9 52.6769 107.917 52.6769C108.835 52.6769 109.417 52.9639 109.768 53.3219L110.322 52.6769C109.804 52.1999 109.11 51.9118 107.973 51.9118C106.557 51.9118 105.729 52.3888 105.729 53.3146C105.729 54.2404 106.423 54.6474 107.833 54.8019C109.264 54.9209 109.537 55.1808 109.537 55.5659C109.537 55.9865 109.2 56.2464 108.261 56.2464L108.259 56.2475Z" fill="white"/>
<path d="M124.527 52.0186C124.176 53.3514 123.727 54.6133 123.292 55.8898C122.759 54.5987 122.163 53.3086 121.728 52.0186H120.704L119.329 55.8407C118.796 54.5079 118.354 53.295 117.926 52.0186H116.902C117.562 53.6812 118.151 55.2166 118.761 56.9283H119.617L121.097 52.8744C121.659 54.2146 122.304 55.5746 122.809 56.9283H123.622C124.31 55.3011 124.891 53.7157 125.607 52.0186H124.527Z" fill="white"/>
<path d="M131.916 52.0186C131.924 52.7273 131.924 53.4349 131.924 54.1509C130.885 54.1718 129.84 54.1718 128.796 54.1436C128.796 53.4349 128.803 52.7273 128.817 52.0186H127.919C127.94 53.653 127.94 55.2938 127.919 56.9283H128.817C128.803 56.2551 128.796 55.5746 128.796 54.9014C129.89 54.8805 130.949 54.8805 131.924 54.9014C131.924 55.5746 131.924 56.2551 131.916 56.9283H132.807C132.786 55.2938 132.786 53.653 132.807 52.0186H131.916Z" fill="white"/>
<path d="M136.626 55.6727C136.956 55.6518 137.454 55.6372 137.944 55.6372C138.435 55.6372 138.961 55.6508 139.277 55.6654C139.445 56.0787 139.614 56.4931 139.782 56.9283H140.862C140.07 55.3429 139.305 53.7365 138.547 52.0186H137.495C136.738 53.5831 135.896 55.3429 135.069 56.9283H136.113C136.261 56.5421 136.429 56.1215 136.626 55.6727ZM137.959 52.6991C138.323 53.4641 138.653 54.2 138.975 54.9577C138.653 54.965 138.33 54.9713 138.008 54.9713C137.65 54.9713 137.293 54.964 136.935 54.9504C137.244 54.249 137.587 53.485 137.959 52.6991Z" fill="white"/>
<path d="M147.524 53.4773C147.517 52.4742 146.837 51.9691 145.358 51.9691C144.705 51.9691 143.73 51.9899 143.148 52.0181H143.141C143.154 52.8322 143.154 53.6526 143.154 54.473C143.154 55.2934 143.154 56.1075 143.141 56.9278H144.031C144.024 56.24 144.017 55.5532 144.01 54.8654C144.389 54.879 144.95 54.8936 145.245 54.8936C146.065 55.7776 146.591 56.4853 146.963 56.9278H148.134V56.788C147.334 56.0939 146.605 55.2172 146.198 54.8101C147.075 54.6275 147.523 54.1505 147.523 53.4773H147.524ZM145.392 54.1849C144.803 54.1849 144.354 54.1567 144.01 54.1223C144.01 53.6526 144.017 53.1829 144.024 52.7195C144.318 52.6986 144.712 52.6913 145.3 52.684C146.086 52.684 146.633 52.8594 146.626 53.4835C146.626 54.0169 146.17 54.1849 145.391 54.1849H145.392Z" fill="white"/>
<path d="M151.705 56.9283C151.691 56.2624 151.684 55.5954 151.684 54.9295C152.252 54.9295 153.34 54.9995 154.623 55.0631V54.2772H151.684C151.684 53.7647 151.691 53.2533 151.691 52.7408C152.821 52.7199 153.824 52.7544 155.198 52.8389V52.0186H150.822C150.836 53.653 150.836 55.2938 150.822 56.9283H151.706H151.705Z" fill="white"/>
</g>
<g clip-path="url(#clip3_375_34282)">
<path d="M75.7092 0.318909V20.0644H95.4379V0.318909H75.7092ZM85.3656 19.4699H76.3037V10.3996H85.3656V19.4699ZM94.8434 9.98579H85.7815V0.915474H94.8434V9.98579Z" fill="white"/>
<path d="M98.7733 0.301819V20.0494H118.521V0.301819H98.7733ZM117.926 15.865H99.3678V12.2226H117.926V15.865ZM117.926 8.12859H99.3678V4.48618H117.926V8.12859Z" fill="white"/>
</g>
</g>
</g>
<defs>
<clipPath id="clip0_375_34282">
<rect width="195" height="58" fill="white"/>
</clipPath>
<clipPath id="clip1_375_34282">
<rect width="194.193" height="57.0169" fill="white" transform="translate(0 0.117126)"/>
</clipPath>
<clipPath id="clip2_375_34282">
<rect width="194.134" height="56.5809" fill="white" transform="translate(0.0469971 0.452515)"/>
</clipPath>
<clipPath id="clip3_375_34282">
<rect width="43.877" height="20.4255" fill="white" transform="translate(75.1145 0.301819)"/>
</clipPath>
</defs>
</svg>
