<svg width="142" height="91" viewBox="0 0 142 91" fill="none" xmlns="http://www.w3.org/2000/svg">
<g clip-path="url(#clip0_1256_4445)">
<path d="M29.6612 51.4104C30.7523 52.345 32.4398 53.0203 34.9589 53.0203C37.4781 53.0203 39.1656 52.3196 40.2045 51.3837C41.5283 50.1629 41.8144 48.7615 41.8144 47.3843V39.2559H39.9705V47.3843C39.9705 49.7216 38.62 51.4091 35.0886 51.4091C31.9985 51.4091 30.6226 49.7216 30.6226 47.514V39.2559H27.9737V47.3843C27.9737 48.8645 28.2077 50.1883 29.6612 51.4091V51.4104Z" fill="white"/>
<path d="M60.0348 52.6568H62.0338V39.2573H60.1899V48.9957L51.4396 39.2573H49.0235V52.6568H50.8941V42.5547L60.0348 52.6568Z" fill="white"/>
<path d="M72.3558 39.2573H69.6548V52.6568H72.3558V39.2573Z" fill="white"/>
<path d="M95.8395 45.9565C95.8395 41.9838 91.9698 38.7627 87.2177 38.7627C82.4655 38.7627 78.5958 41.9825 78.5958 45.9565C78.5958 49.9304 82.4909 53.1235 87.2177 53.1235C91.9444 53.1235 95.8395 49.9291 95.8395 45.9565ZM87.2177 51.67C83.6087 51.67 81.5041 49.1776 81.5041 45.9565C81.5041 42.7354 83.6074 40.2429 87.2177 40.2429C90.8279 40.2429 92.8524 42.7621 92.8524 45.9565C92.8524 49.1509 90.8012 51.67 87.2177 51.67Z" fill="white"/>
<path d="M103.526 42.5547L112.666 52.6568H114.667V39.2573H112.823V48.9957L104.071 39.2573H101.656V52.6568H103.526V42.5547Z" fill="white"/>
<path d="M13.1944 74.7356C16.8555 74.7356 18.6994 73.5148 20.2839 72.2685L19.0376 71.0223C17.7393 72.0613 16.1548 73.1778 13.5059 73.1778C10.1818 73.1778 7.22139 71.0477 7.22139 67.6982C7.22139 64.3486 9.97453 61.9338 13.0647 61.9338C15.7657 61.9338 17.5053 62.9981 18.9079 64.2189L20.1542 62.9727C18.4921 61.5446 16.0518 60.376 13.1689 60.376C7.87121 60.376 4.26224 63.5704 4.26224 67.6995C4.26224 71.8285 8.33918 74.7368 13.1956 74.7368L13.1944 74.7356Z" fill="white"/>
<path d="M29.422 68.0614H37.6801V74.2672H40.329V60.8677H37.6801V66.5558H29.422V60.8677H26.721V74.2672H29.422V68.0614Z" fill="white"/>
<path d="M47.7136 74.2672L49.5308 70.7612H57.8411L59.7625 74.2672H62.8005L55.4249 60.8677H52.9579L45.5568 74.2672H47.7123H47.7136ZM53.6077 62.9456L57.0615 69.3077H50.2581L53.6077 62.9456Z" fill="white"/>
<path d="M68.0169 60.8677V74.2672H69.8862V64.1664L79.0269 74.2672H81.0273V60.8677H79.1834V70.606L70.4318 60.8677H68.0169Z" fill="white"/>
<path d="M88.1155 60.8677V74.2672H89.9861V64.1664L99.1268 74.2672H101.126V60.8677H99.2819V70.606L90.5316 60.8677H88.1155Z" fill="white"/>
<path d="M120.147 62.4776V60.8677H107.969V74.2672H120.693V72.6318H110.67V68.139H116.07V66.5558H110.67V62.4776H120.147Z" fill="white"/>
<path d="M137.874 72.6318H129.746V60.8677H127.045V74.2672H137.874V72.6318Z" fill="white"/>
<path d="M2.29758 88.9545C2.69943 88.9291 3.30601 88.9113 3.90369 88.9113C4.50137 88.9113 5.14229 88.9278 5.5276 88.9456C5.73234 89.4492 5.93834 89.954 6.14308 90.4843H7.45925C6.49406 88.5527 5.56193 86.5956 4.63871 84.5024H3.35688C2.43365 86.4087 1.40869 88.5527 0.400269 90.4843H1.6732C1.8525 90.0138 2.05724 89.5013 2.29758 88.9545ZM3.92149 85.3303C4.3653 86.2624 4.76715 87.1589 5.16009 88.0822C4.76715 88.0911 4.3742 88.0987 3.98126 88.0987C3.54508 88.0987 3.11017 88.0898 2.67399 88.0733C3.05041 87.2187 3.46878 86.2879 3.92149 85.3303Z" fill="white"/>
<path d="M14.9952 85.5109V84.5024H8.88486V85.5109C9.86785 85.4676 10.5762 85.4168 11.3888 85.4257V87.4934C11.3888 88.4929 11.3888 89.4848 11.3799 90.4843H12.4646C12.448 89.4848 12.4391 88.4929 12.4391 87.4934C12.4391 86.8016 12.4391 86.1085 12.448 85.4257C13.2772 85.4168 13.9944 85.4689 14.9952 85.5109Z" fill="white"/>
<path d="M25.5893 90.6045C27.2895 90.6045 28.7507 89.7588 28.7507 87.7242V87.2791C27.7422 87.288 26.7427 87.2791 25.7432 87.2193V88.1425C26.435 88.0917 27.1102 88.0573 27.7855 88.0395C27.7168 89.184 26.8025 89.6456 25.6058 89.6456C24.1701 89.6456 23.3499 88.9361 23.3499 87.4749C23.3499 86.1333 24.1193 85.3296 25.6313 85.3296C26.7503 85.3296 27.4688 85.7734 27.905 86.2694L28.6235 85.4835C27.9737 84.8426 27.1967 84.3721 25.6326 84.3721C23.4021 84.3721 22.2652 85.6628 22.2652 87.5423C22.2652 89.4218 23.4707 90.6019 25.5893 90.6019V90.6045Z" fill="white"/>
<path d="M38.2448 87.4418C38.2448 85.519 37.0139 84.3745 34.8609 84.3745C32.708 84.3745 31.4936 85.6652 31.4936 87.4507C31.4936 89.4497 32.6991 90.6044 34.8177 90.6044C37.0991 90.6044 38.2448 89.3225 38.2448 87.443V87.4418ZM32.5872 87.4672C32.5872 86.1345 33.3477 85.3308 34.8609 85.3308C36.3742 85.3308 37.1512 86.0315 37.1512 87.4583C37.1512 88.8851 36.3819 89.6544 34.8355 89.6544C33.3998 89.6544 32.5885 88.9372 32.5885 87.4672H32.5872Z" fill="white"/>
<path d="M40.3889 84.5024C41.1925 86.5282 41.9098 88.3988 42.6537 90.4843H43.6964L45.4997 85.5452C46.1838 87.178 46.9697 88.835 47.5852 90.4843H48.5758C49.4138 88.5018 50.1221 86.5702 50.9945 84.5024H49.6783C49.2511 86.1264 48.7042 87.6638 48.174 89.219C47.5241 87.646 46.798 86.0742 46.2677 84.5024H45.0202L43.3455 89.1593C42.6956 87.5353 42.1577 86.0577 41.6364 84.5024H40.3889Z" fill="white"/>
<path d="M54.4013 88.9545C54.8032 88.9291 55.4098 88.9113 56.0074 88.9113C56.6051 88.9113 57.246 88.9278 57.6314 88.9456C57.8361 89.4492 58.0421 89.954 58.2468 90.4843H59.563C58.5978 88.5527 57.6657 86.5956 56.7425 84.5024H55.4606C54.5374 86.4087 53.5125 88.5527 52.504 90.4843H53.777C53.9563 90.0138 54.161 89.5013 54.4013 88.9545ZM56.0253 85.3303C56.4691 86.2624 56.8709 87.1589 57.2638 88.0822C56.8709 88.0911 56.478 88.0987 56.085 88.0987C55.6488 88.0987 55.2139 88.0898 54.7778 88.0733C55.1542 87.2187 55.5725 86.2879 56.0253 85.3303Z" fill="white"/>
<path d="M62.3315 84.5024C62.348 85.9381 62.3569 89.3398 62.3315 90.4843H63.4937C63.3907 88.9723 63.3488 86.9377 63.3055 85.5541C64.5708 87.075 66.032 89.0499 67.2108 90.4843H68.3731C68.3731 89.1682 68.4163 86.0488 68.4494 84.5024H67.3303C67.3812 85.708 67.4677 87.6981 67.4931 89.0741C66.3652 87.6473 64.9295 85.9636 63.8613 84.5024H62.3315Z" fill="white"/>
<path d="M72.3366 84.5024C72.371 85.5452 72.3455 86.3998 72.3455 88.0059C72.3455 89.7061 73.3362 90.5784 75.1228 90.5784C77.1397 90.5784 78.0032 89.4759 78.0032 87.9385C78.0032 86.1696 78.0032 85.076 78.0197 84.5037H76.935C76.9439 85.5121 76.9515 86.3921 76.9515 87.571C76.9515 89.2203 76.4136 89.6221 75.1915 89.6221C73.8843 89.6221 73.3972 89.0575 73.3972 87.6307C73.3972 86.6388 73.3883 85.4346 73.4226 84.5024H72.3379H72.3366Z" fill="white"/>
<path d="M84.6071 87.0237C83.0518 86.8609 82.608 86.6053 82.608 86.0839C82.608 85.5969 83.0187 85.3057 84.2573 85.3057C85.3764 85.3057 86.086 85.6554 86.5133 86.0915L87.1885 85.3057C86.5565 84.7245 85.7108 84.3735 84.326 84.3735C82.6004 84.3735 81.5919 84.9547 81.5919 86.0826C81.5919 87.2106 82.4376 87.7066 84.1556 87.8948C85.8991 88.0397 86.2322 88.3564 86.2322 88.8256C86.2322 89.3381 85.8215 89.6547 84.677 89.6547C83.3519 89.6547 82.5571 89.2872 81.9773 88.7659L81.3109 89.5517C81.9518 90.1761 82.9603 90.611 84.4723 90.611C86.4802 90.611 87.2839 89.9192 87.2839 88.851C87.2839 87.7829 86.4471 87.2271 84.6096 87.0224L84.6071 87.0237Z" fill="white"/>
<path d="M103.393 90.4843C104.231 88.5018 104.94 86.5702 105.812 84.5024H104.496C104.068 86.1264 103.522 87.6638 102.991 89.219C102.342 87.646 101.615 86.0742 101.085 84.5024H99.8376L98.1628 89.1593C97.513 87.5353 96.9751 86.0577 96.4537 84.5024H95.2062C96.0099 86.5282 96.7271 88.3988 97.4711 90.4843H98.5138L100.317 85.5452C101.001 87.178 101.787 88.835 102.403 90.4843H103.393Z" fill="white"/>
<path d="M109.724 90.4843C109.707 89.6641 109.698 88.835 109.698 88.0148C111.031 87.9893 112.322 87.9893 113.509 88.0148C113.509 88.835 113.509 89.6641 113.5 90.4843H114.585C114.56 88.4929 114.56 86.4939 114.585 84.5024H113.5C113.509 85.3659 113.509 86.2281 113.509 87.1004C112.244 87.1259 110.971 87.1259 109.698 87.0915C109.698 86.2281 109.707 85.3659 109.724 84.5024H108.63C108.655 86.4939 108.655 88.4929 108.63 90.4843H109.724Z" fill="white"/>
<path d="M117.341 90.4843H118.614C118.793 90.0138 118.998 89.5013 119.238 88.9545C119.64 88.9291 120.247 88.9113 120.844 88.9113C121.442 88.9113 122.083 88.9278 122.468 88.9456C122.673 89.4492 122.879 89.954 123.084 90.4843H124.4C123.435 88.5527 122.502 86.5956 121.579 84.5024H120.297C119.374 86.4087 118.349 88.5527 117.341 90.4843ZM122.101 88.0822C121.708 88.0911 121.315 88.0987 120.922 88.0987C120.486 88.0987 120.051 88.0898 119.615 88.0733C119.991 87.2187 120.409 86.2879 120.862 85.3303C121.306 86.2624 121.708 87.1589 122.101 88.0822Z" fill="white"/>
<path d="M131.833 90.4845H133.259V90.3141C132.285 89.4685 131.396 88.4003 130.9 87.9043C131.969 87.6818 132.515 87.1006 132.515 86.2804C132.507 85.0584 131.677 84.4429 129.875 84.4429C129.081 84.4429 127.893 84.4683 127.183 84.5026H127.174C127.191 85.4945 127.191 86.4941 127.191 87.4936C127.191 88.4931 127.191 89.485 127.174 90.4845H128.259C128.25 89.6465 128.243 88.8097 128.234 87.9717C128.695 87.9883 129.378 88.0061 129.738 88.0061C130.738 89.0832 131.379 89.9453 131.831 90.4845H131.833ZM128.252 85.3572C128.61 85.3318 129.09 85.3229 129.807 85.314C130.764 85.314 131.431 85.5276 131.422 86.288C131.422 86.9379 130.866 87.1426 129.917 87.1426C129.2 87.1426 128.652 87.1083 128.234 87.0663C128.234 86.4941 128.243 85.9218 128.25 85.3572H128.252Z" fill="white"/>
<path d="M141.863 85.502V84.5024H136.531C136.548 86.4939 136.548 88.4929 136.531 90.4843H137.608C137.592 89.673 137.583 88.8604 137.583 88.0491C138.275 88.0491 139.6 88.1343 141.164 88.2119V87.2543H137.583C137.583 86.6299 137.592 86.0068 137.592 85.3824C138.968 85.357 140.19 85.399 141.865 85.502H141.863Z" fill="white"/>
<path d="M45.2083 0V23.9072H69.0952V0H45.2083ZM45.9293 0.721031H47.6652L45.9293 2.45685V0.721031ZM45.9293 3.53521L48.7448 0.719759H50.5773L45.9293 5.36767V3.53521ZM45.9293 6.44731L51.6556 0.721031H53.4881L45.9293 8.27977V6.44731ZM45.9293 9.35814L54.5665 0.721031H56.3989L45.9293 11.1906V9.35814ZM56.9012 23.1862H45.9281V12.2041H56.9012V23.1862ZM56.9012 11.7031H55.229L56.9012 10.0308V11.7031ZM56.9012 8.95121L54.1494 11.7031H52.3169L56.9012 7.11875V8.95121ZM56.9012 6.04038L51.2385 11.7031H49.4061L56.9012 4.20792V6.04038ZM56.9012 3.12828L48.3264 11.7018H46.494L56.9012 1.29582V3.12828ZM57.4035 23.1862V21.486L59.1037 23.1862H57.4035ZM60.1821 23.1862L57.4035 20.4076V18.5751L62.0146 23.1862H60.1821ZM63.0929 23.1862L57.4023 17.4955V15.663L64.9254 23.1862H63.0929ZM66.005 23.1862L57.4035 14.5847V12.7522L67.8375 23.1862H66.005ZM68.3754 22.6457L57.9338 12.2028H59.7663L68.3767 20.8132V22.6457H68.3754ZM68.3754 19.7349L60.8446 12.2041H62.6771L68.3754 17.9024V19.7349ZM68.3754 16.8241L63.7555 12.2041H65.5879L68.3754 14.9916V16.8241ZM68.3754 13.912L66.6663 12.2028H68.3754V13.912ZM68.3754 11.7031H57.4023V0.721031H68.3754V11.7031Z" fill="white"/>
<path d="M73.1341 0V23.9097H97.0438V0H73.1341ZM94.4127 4.56399H92.5714L96.3228 0.81259V2.65395L94.4127 4.56399ZM96.3228 3.73232V4.56399H95.4911L96.3228 3.73232ZM95.3372 0.721031L91.493 4.56526H89.6516L93.4959 0.721031H95.3372ZM92.4175 0.721031L88.5733 4.56526H86.6849L90.5291 0.721031H92.4175ZM89.4495 0.721031L85.6052 4.56526H83.7639L87.6081 0.721031H89.4495ZM86.5284 0.721031L82.6842 4.56526H80.8429L84.6871 0.721031H86.5284ZM83.6087 0.721031L79.7645 4.56526H77.9231L81.7674 0.721031H83.6087ZM80.689 0.721031L76.8448 4.56526H75.0034L78.8476 0.721031H80.689ZM73.8538 0.721031H74.8483L73.8538 1.71547V0.721031ZM73.8538 2.79384L75.9279 0.719759H77.7693L73.925 4.56399H73.8538V2.79384ZM73.8538 5.06502H96.3228V9.4764H73.8538V5.06502ZM94.3059 13.9323H92.4645L96.3228 10.0741V11.9154L94.3059 13.9323ZM96.3228 12.9938V13.9323H95.3843L96.3228 12.9938ZM81.7712 9.97871H83.6125L79.6589 13.9323H77.8176L81.7712 9.97871ZM76.7379 13.9323H74.8966L78.8502 9.97871H80.6915L76.7379 13.9323ZM84.6909 9.97871H86.5323L82.5787 13.9323H80.7373L84.6909 9.97871ZM87.6106 9.97871H89.452L85.4984 13.9323H83.657L87.6106 9.97871ZM90.5304 9.97871H92.4188L88.4652 13.9323H86.5768L90.5304 9.97871ZM93.4984 9.97871H95.3398L91.3862 13.9323H89.5448L93.4984 9.97871ZM73.8538 9.97871H74.8521L73.8538 10.977V9.97871ZM73.8538 12.0553L75.9304 9.97871H77.7718L73.8538 13.8967V12.0553ZM73.8538 14.4333H96.3228V18.8447H73.8538V14.4333ZM74.7453 19.3458L73.8551 20.2359V19.3458H74.7453ZM73.8538 21.3156L75.8236 19.3458H77.665L73.8538 23.1569V21.3156ZM74.9004 23.19L78.7446 19.3458H80.586L76.7418 23.19H74.9004ZM77.8201 23.19L81.6643 19.3458H83.5057L79.6615 23.19H77.8201ZM80.7399 23.19L84.5841 19.3458H86.4254L82.5812 23.19H80.7399ZM83.6596 23.19L87.5038 19.3458H89.3452L85.501 23.19H83.6596ZM86.5793 23.19L90.4235 19.3458H92.312L88.4677 23.19H86.5793ZM89.5474 23.19L93.3916 19.3458H95.233L91.3887 23.19H89.5474ZM96.324 23.19H95.3881L96.324 22.254V23.19ZM96.324 21.1744L94.3097 23.1887H92.4684L96.3126 19.3445H96.324V21.1731V21.1744Z" fill="white"/>
</g>
<defs>
<clipPath id="clip0_1256_4445">
<rect width="141.463" height="90.6121" fill="white" transform="translate(0.400177)"/>
</clipPath>
</defs>
</svg>
