<svg width="115" height="65" viewBox="0 0 115 65" fill="none" xmlns="http://www.w3.org/2000/svg">
<g clip-path="url(#clip0_833_2768)">
<path d="M21.9363 44.3049C22.8734 45.1062 24.3239 45.6832 26.4864 45.6832C28.649 45.6832 30.0995 45.0823 30.9907 44.2832C32.1288 43.238 32.3735 42.0383 32.3735 40.8603V33.9014H30.7898V40.8603C30.7898 42.8613 29.6298 44.3071 26.5957 44.3071C23.9416 44.3071 22.7598 42.8613 22.7598 40.9713V33.9014H20.4858V40.8603C20.4858 42.1275 20.6868 43.262 21.9363 44.3071V44.3049Z" fill="white"/>
<path d="M48.0228 45.3719H49.7397V33.9014H48.1582V42.2386L40.6416 33.9014H38.5664V45.3719H40.172V36.7233L48.0228 45.3719Z" fill="white"/>
<path d="M58.6064 33.9014H56.2865V45.374H58.6064V33.9014Z" fill="white"/>
<path d="M78.7751 39.6367C78.7751 36.2356 75.4526 33.479 71.3699 33.479C67.2872 33.479 63.9647 36.2356 63.9647 39.6367C63.9647 43.0377 67.3113 45.7725 71.3699 45.7725C75.4286 45.7725 78.7751 43.0377 78.7751 39.6367ZM71.3699 44.5271C68.2702 44.5271 66.4637 42.3932 66.4637 39.6367C66.4637 36.8801 68.2702 34.7462 71.3699 34.7462C74.4696 34.7462 76.2106 36.9019 76.2106 39.6367C76.2106 42.3715 74.4478 44.5271 71.3699 44.5271Z" fill="white"/>
<path d="M85.3764 36.7233L93.2272 45.3719H94.9464V33.9014H93.3627V42.2386L85.8461 33.9014H83.7709V45.3719H85.3764V36.7233Z" fill="white"/>
<path d="M7.79227 64.2738C10.9378 64.2738 12.5215 63.2286 13.8803 62.1617L12.8099 61.0948C11.6936 61.9831 10.3349 62.939 8.05877 62.939C5.20373 62.939 2.66106 61.1166 2.66106 58.2489C2.66106 55.3813 5.02461 53.3128 7.67868 53.3128C9.99854 53.3128 11.4927 54.2251 12.6963 55.2703L13.7667 54.2033C12.3402 52.9796 10.2432 51.9802 7.76606 51.9802C3.21591 51.9802 0.116211 54.715 0.116211 58.2489C0.116211 61.7828 3.61784 64.2738 7.7879 64.2738H7.79227Z" fill="white"/>
<path d="M21.7312 58.5602H28.8241V63.8753H31.098V52.4026H28.8241V57.2712H21.7312V52.4026H19.4114V63.8753H21.7312V58.5602Z" fill="white"/>
<path d="M37.4414 63.8753L39.0033 60.8748H46.1398L47.7912 63.8753H50.4016L44.0667 52.4026H41.9479L35.5912 63.8753H37.4414ZM42.5027 54.1815L45.4691 59.6293H39.6258L42.5027 54.1815Z" fill="white"/>
<path d="M54.8798 52.4026V63.8753H56.4853V55.2267L64.3361 63.8753H66.0531V52.4026H64.4694V60.7398L56.9528 52.4026H54.8798Z" fill="white"/>
<path d="M72.1432 52.4026V63.8753H73.7487V55.2267L81.5996 63.8753H83.3165V52.4026H81.7328V60.7398L74.2162 52.4026H72.1432Z" fill="white"/>
<path d="M99.6538 53.7809V52.4026H89.1926V63.8753H100.121V62.473H91.5125V58.6277H96.1522V57.2712H91.5125V53.7809H99.6538Z" fill="white"/>
<path d="M114.879 62.473H107.898V52.4026H105.578V63.8753H114.879V62.473Z" fill="white"/>
<path d="M35.2898 0.291504V20.759H55.8059V0.291504H35.2898ZM45.3316 20.1428H35.908V10.7408H45.3316V20.1428ZM55.1877 10.3118H45.7641V0.909883H55.1877V10.3118Z" fill="white"/>
<path d="M59.2747 0.273926V20.7436H79.8104V0.273926H59.2747ZM79.1922 16.4062H59.8929V12.6306H79.1922V16.4062ZM79.1922 8.38688H59.8929V4.61129H79.1922V8.38688Z" fill="white"/>
</g>
<defs>
<clipPath id="clip0_833_2768">
<rect width="114.759" height="64" fill="white" transform="translate(0.120605 0.273926)"/>
</clipPath>
</defs>
</svg>
