<svg width="374" height="84" viewBox="0 0 374 84" fill="none" xmlns="http://www.w3.org/2000/svg">
<g clip-path="url(#clip0_254_763)">
<path d="M18.9904 74.9047C18.9904 78.6 16.8552 81.27 11.2701 81.27C6.38462 81.27 4.20927 78.6 4.20927 75.1098V62.0537H0.0234375V74.9047C0.0234375 77.245 0.393367 79.3399 2.69337 81.27C4.41836 82.7497 7.08829 83.8152 11.0691 83.8152C15.0498 83.8152 17.7198 82.7054 19.3603 81.2297C21.4552 79.2997 21.9056 77.0841 21.9056 74.9088V62.0577H18.9904V74.9088V74.9047Z" fill="#2B3B4A"/>
<path d="M36.2601 67.2689L50.7115 83.2402H53.872V62.0537H50.9568V77.45L37.1206 62.0537H33.3047V83.2402H36.2601V67.2689Z" fill="#2B3B4A"/>
<path d="M70.1941 62.0537H65.9238V83.2402H70.1941V62.0537Z" fill="#2B3B4A"/>
<path d="M93.6878 83.98C101.203 83.98 107.319 78.9297 107.319 72.6489C107.319 66.3681 101.203 61.2776 93.6878 61.2776C86.1725 61.2776 80.0566 66.3681 80.0566 72.6489C80.0566 78.9297 86.2168 83.98 93.6878 83.98ZM93.6878 63.6138C99.3533 63.6138 102.598 67.5945 102.598 72.6449C102.598 77.6952 99.3533 81.676 93.6878 81.676C88.0222 81.676 84.6566 77.7354 84.6566 72.6449C84.6566 67.5543 87.982 63.6138 93.6878 63.6138Z" fill="#2B3B4A"/>
<path d="M119.469 67.2689L133.92 83.2402H137.081V62.0537H134.17V77.45L120.334 62.0537H116.514V83.2402H119.469V67.2689Z" fill="#2B3B4A"/>
<path d="M176.649 63.7587C180.919 63.7587 183.67 65.4435 185.885 67.3735L187.856 65.4033C185.23 63.1435 181.37 61.2979 176.81 61.2979C168.434 61.2979 162.729 66.3482 162.729 72.8742C162.729 79.4003 169.174 84.0003 176.85 84.0003C182.64 84.0003 185.556 82.0702 188.057 80.0999L186.086 78.1297C184.032 79.7702 181.531 81.5354 177.341 81.5354C172.085 81.5354 167.405 78.1699 167.405 72.8742C167.405 67.5786 171.756 63.7587 176.641 63.7587H176.649Z" fill="#2B3B4A"/>
<path d="M198.242 62.0737V83.2602H202.512V73.4491H215.569V83.2602H219.754V62.0737H215.569V71.0687H202.512V62.0737H198.242Z" fill="#2B3B4A"/>
<path d="M231.429 83.2602L234.304 77.7193H247.441L250.481 83.2602H255.286L243.625 62.0737H239.724L228.023 83.2602H231.429ZM240.746 65.3589L246.206 75.4193H235.45L240.746 65.3589Z" fill="#2B3B4A"/>
<path d="M266.487 67.2889L280.938 83.2602H284.099V62.0737H281.183V77.47L267.347 62.0737H263.531V83.2602H266.487V67.2889Z" fill="#2B3B4A"/>
<path d="M298.264 67.2889L312.716 83.2602H315.876V62.0737H312.961V77.47L299.125 62.0737H295.305V83.2602H298.264V67.2889Z" fill="#2B3B4A"/>
<path d="M346.806 80.6748H330.96V73.5697H339.5V71.0687H330.96V64.619H345.946V62.0737H326.689V83.2602H346.806V80.6748Z" fill="#2B3B4A"/>
<path d="M373.975 80.6748H361.124V62.0737H356.854V83.2602H373.975V80.6748Z" fill="#2B3B4A"/>
<path d="M146.143 0.0419922V37.8392H183.908V0.0419922H146.143ZM164.627 36.7012H147.281V19.3387H164.627V36.7012ZM182.77 18.5465H165.423V1.18395H182.77V18.5465Z" fill="#2B3B4A"/>
<path d="M190.293 0.00976562V37.811H228.094V0.00976562H190.293ZM226.956 29.8012H191.431V22.8288H226.956V29.8012ZM226.956 14.9919H191.431V8.01955H226.956V14.9919Z" fill="#2B3B4A"/>
</g>
<defs>
<clipPath id="clip0_254_763">
<rect width="373.951" height="83.9902" fill="white" transform="translate(0.0253906 0.00976562)"/>
</clipPath>
</defs>
</svg>
