<svg width="260" height="70" viewBox="0 0 260 70" fill="none" xmlns="http://www.w3.org/2000/svg">
<path d="M114.666 12.8428V12.5677L114.391 12.8428H114.666Z" fill="white"/>
<path d="M114.392 12.8452L114.227 13.0102H114.667V12.8452H114.392Z" fill="white"/>
<path d="M114.751 25.854H114.586H115.026L114.751 25.579V25.854Z" fill="white"/>
<path d="M114.586 25.4431H114.614L114.586 25.4148V25.4431Z" fill="white"/>
<path d="M114.751 25.5806L114.613 25.4431H114.586V25.8557H114.751V25.5806Z" fill="white"/>
<path d="M1.89783 50.775C3.08054 51.7926 4.95086 52.5353 7.70134 52.5353C10.4518 52.5353 12.3221 51.7651 13.4498 50.7475C14.9076 49.3997 15.2101 47.8595 15.2101 46.3742V37.4626H13.1748V46.3742C13.1748 48.9321 11.6895 50.775 7.81136 50.775C4.42827 50.775 2.91551 48.9321 2.91551 46.5117V37.4626H0V46.3742C0 47.997 0.247543 49.4547 1.84282 50.775H1.89783Z" fill="#F9F4E1"/>
<path d="M25.1682 41.0375L35.2074 52.1219H37.3803V37.4343H35.3724V48.1062L25.7733 37.4343H23.1328V52.1219H25.1682V41.0375Z" fill="#F9F4E1"/>
<path d="M48.7127 37.4343H45.7422V52.1219H48.7127V37.4343Z" fill="#F9F4E1"/>
<path d="M64.9929 52.6444C70.1913 52.6444 74.4545 49.1513 74.4545 44.778C74.4545 40.4048 70.2188 36.8842 64.9929 36.8842C59.767 36.8842 55.5312 40.4048 55.5312 44.778C55.5312 49.1513 59.7945 52.6444 64.9929 52.6444ZM64.9929 38.5069C68.9261 38.5069 71.1815 41.2574 71.1815 44.778C71.1815 48.2986 68.9261 51.0491 64.9929 51.0491C61.0597 51.0491 58.7218 48.3261 58.7218 44.778C58.7218 41.2299 61.0322 38.5069 64.9929 38.5069Z" fill="#F9F4E1"/>
<path d="M82.8988 41.0375L92.9105 52.1219H95.1109V37.4343H93.0756V48.1062L83.4764 37.4343H80.8359V52.1219H82.8988V41.0375Z" fill="#F9F4E1"/>
<path d="M122.56 38.617C125.531 38.617 127.429 39.7722 128.969 41.1199L130.344 39.7446C128.529 38.1769 125.833 36.8842 122.67 36.8842C116.867 36.8842 112.906 40.3773 112.906 44.9155C112.906 49.4538 117.39 52.6444 122.698 52.6444C126.714 52.6444 128.749 51.2967 130.482 49.9489L129.107 48.5737C127.676 49.7014 125.944 50.9391 123.028 50.9391C119.37 50.9391 116.124 48.6012 116.124 44.9431C116.124 41.2849 119.15 38.617 122.533 38.617H122.56Z" fill="#F9F4E1"/>
<path d="M137.523 37.4626V52.1502H140.494V45.329H149.543V52.1502H152.459V37.4626H149.543V43.6787H140.494V37.4626H137.523Z" fill="#F9F4E1"/>
<path d="M160.545 52.1502L162.525 48.2995H171.63L173.747 52.1502H177.075L168.989 37.4626H166.294L158.18 52.1502H160.545ZM167.009 39.718L170.804 46.7043H163.351L167.036 39.718H167.009Z" fill="#F9F4E1"/>
<path d="M184.86 41.0658L194.899 52.1502H197.072V37.4626H195.064V48.1345L185.465 37.4626H182.824V52.1502H184.86V41.0658Z" fill="#F9F4E1"/>
<path d="M206.918 41.0658L216.93 52.1502H219.13V37.4626H217.095V48.1345L207.496 37.4626H204.855V52.1502H206.918V41.0658Z" fill="#F9F4E1"/>
<path d="M240.586 50.3624H229.584V45.4115H235.525V43.6787H229.584V39.223H239.98V37.4626H226.641V52.1502H240.586V50.3624Z" fill="#F9F4E1"/>
<path d="M259.425 50.3624H250.513V37.4626H247.543V52.1502H259.425V50.3624Z" fill="#F9F4E1"/>
<path d="M54.266 68.1838C54.7061 68.1563 55.3662 68.1288 56.0263 68.1288C56.6864 68.1288 57.374 68.1288 57.8141 68.1563C58.0341 68.7064 58.2542 69.2565 58.5017 69.8341H59.932C58.8593 67.7163 57.8416 65.5709 56.8514 63.2605H55.4487C54.431 65.3509 53.3033 67.7163 52.2031 69.8341H53.6059C53.7984 69.3115 54.0184 68.7615 54.2935 68.1563L54.266 68.1838ZM56.0538 64.1957C56.5489 65.2133 56.989 66.2035 57.4015 67.2212C56.9615 67.2212 56.5489 67.2212 56.1088 67.2212C55.6412 67.2212 55.1461 67.2212 54.6785 67.1937C55.0911 66.2585 55.5587 65.2408 56.0538 64.1957Z" fill="#F9F4E1"/>
<path d="M61.5 64.389C62.5727 64.334 63.3428 64.279 64.2505 64.3065V66.5619C64.2505 67.6621 64.2505 68.7348 64.2505 69.835H65.4332C65.4332 68.7348 65.4057 67.6621 65.4057 66.5619C65.4057 65.7918 65.4057 65.0491 65.4057 64.3065C66.3133 64.3065 67.111 64.3615 68.2112 64.389V63.2888H61.5V64.389Z" fill="#F9F4E1"/>
<path d="M79.8181 69.9997C81.6885 69.9997 83.2837 69.0645 83.2837 66.8366V66.3416C82.1835 66.3416 81.0834 66.3416 79.9832 66.2865V67.3042C80.7533 67.2492 81.4959 67.2217 82.2111 67.1942C82.1285 68.4594 81.1384 68.9545 79.8181 68.9545C78.2504 68.9545 77.3427 68.1844 77.3427 66.5616C77.3427 65.1038 78.1954 64.1962 79.8456 64.1962C81.0834 64.1962 81.8535 64.6913 82.3486 65.2139L83.1462 64.3612C82.4311 63.6461 81.5784 63.151 79.8731 63.151C77.4252 63.151 76.1875 64.5537 76.1875 66.6166C76.1875 68.6795 77.5077 69.9722 79.8456 69.9722L79.8181 69.9997Z" fill="#F9F4E1"/>
<path d="M89.9942 63.151C87.5463 63.151 86.3086 64.5537 86.3086 66.5341C86.3086 68.7345 87.6288 69.9997 89.9667 69.9997C92.4697 69.9997 93.7349 68.5969 93.7349 66.5341C93.7349 64.4712 92.3872 63.1785 90.0217 63.1785L89.9942 63.151ZM89.9667 68.9545C88.399 68.9545 87.4913 68.1569 87.4913 66.5616C87.4913 65.1038 88.3164 64.2237 89.9942 64.2237C91.672 64.2237 92.4972 64.9938 92.4972 66.5616C92.4972 68.1294 91.6445 68.982 89.9667 68.982V68.9545Z" fill="#F9F4E1"/>
<path d="M99.6775 69.8625L101.658 64.444C102.4 66.2318 103.281 68.0471 103.941 69.8625H105.041C105.949 67.6896 106.746 65.5717 107.681 63.2888H106.251C105.784 65.0766 105.178 66.7544 104.601 68.4597C103.886 66.7269 103.088 65.0216 102.511 63.2888H101.135L99.2924 68.4047C98.5773 66.6169 97.9997 64.9941 97.4221 63.2888H96.0469C96.927 65.5167 97.7247 67.5521 98.5223 69.8625H99.6775Z" fill="#F9F4E1"/>
<path d="M113.183 68.1288C113.87 68.1288 114.53 68.1288 114.97 68.1563C115.19 68.7064 115.41 69.2565 115.658 69.8341H117.088C116.016 67.7163 114.998 65.5709 114.008 63.2605H112.605C111.587 65.3509 110.46 67.7163 109.359 69.8341H110.762C110.955 69.3115 111.175 68.7615 111.45 68.1563C111.89 68.1288 112.55 68.1013 113.21 68.1013L113.183 68.1288ZM113.21 64.1957C113.705 65.2133 114.145 66.2035 114.558 67.2212C114.118 67.2212 113.705 67.2212 113.265 67.2212C112.797 67.2212 112.302 67.2212 111.835 67.1937C112.247 66.2585 112.715 65.2408 113.21 64.1957Z" fill="#F9F4E1"/>
<path d="M121.379 69.8625C121.269 68.2122 121.214 65.9843 121.186 64.444C122.561 66.1218 124.184 68.2672 125.477 69.8625H126.742C126.742 68.4322 126.797 64.9941 126.825 63.2888H125.587C125.642 64.609 125.724 66.7819 125.752 68.2947C124.514 66.7269 122.946 64.8841 121.764 63.2888H120.086C120.086 64.8566 120.113 68.5972 120.086 69.8625H121.351H121.379Z" fill="#F9F4E1"/>
<path d="M131.09 67.1393C131.09 69.0097 132.19 69.9723 134.143 69.9723C136.343 69.9723 137.306 68.7621 137.306 67.0843C137.306 65.1315 137.306 63.9488 137.306 63.3162H136.123C136.123 64.4164 136.123 65.379 136.123 66.6717C136.123 68.4871 135.546 68.9271 134.198 68.9271C132.768 68.9271 132.218 68.322 132.218 66.7543C132.218 65.6541 132.218 64.3338 132.245 63.3162H131.062C131.09 64.4714 131.062 65.4065 131.062 67.1668L131.09 67.1393Z" fill="#F9F4E1"/>
<path d="M144.619 68.9544C143.162 68.9544 142.309 68.5418 141.649 67.9917L140.906 68.8443C141.621 69.532 142.722 69.9995 144.372 69.9995C146.572 69.9995 147.452 69.2294 147.452 68.0742C147.452 66.919 146.545 66.2864 144.509 66.0664C142.804 65.9013 142.309 65.5988 142.309 65.0487C142.309 64.5261 142.749 64.196 144.124 64.196C145.362 64.196 146.132 64.5811 146.6 65.0487L147.342 64.196C146.655 63.5634 145.72 63.1783 144.207 63.1783C142.309 63.1783 141.209 63.811 141.209 65.0487C141.209 66.2864 142.144 66.8365 144.014 67.029C145.94 67.194 146.297 67.5241 146.297 68.0467C146.297 68.5968 145.857 68.9544 144.592 68.9544H144.619Z" fill="#F9F4E1"/>
<path d="M166.349 63.2888C165.881 65.0766 165.276 66.7544 164.699 68.4597C163.983 66.7269 163.186 65.0216 162.608 63.2888H161.233L159.39 68.4047C158.675 66.6169 158.097 64.9941 157.52 63.2888H156.145C157.025 65.5167 157.822 67.5521 158.62 69.8625H159.775L161.756 64.444C162.498 66.2318 163.378 68.0471 164.038 69.8625H165.139C166.046 67.6896 166.844 65.5717 167.779 63.2888H166.349Z" fill="#F9F4E1"/>
<path d="M176.223 63.2888C176.223 64.224 176.223 65.1867 176.223 66.1493C174.848 66.1768 173.445 66.1768 172.042 66.1493C172.042 65.2142 172.042 64.2515 172.07 63.3163H170.859C170.887 65.4892 170.887 67.6896 170.859 69.89H172.07C172.07 68.9823 172.042 68.0747 172.042 67.1945C173.5 67.167 174.93 67.167 176.223 67.1945C176.223 68.1022 176.223 69.0098 176.223 69.89H177.406C177.378 67.7171 177.378 65.5167 177.406 63.3163H176.223V63.2888Z" fill="#F9F4E1"/>
<path d="M182.52 68.1838C182.96 68.1563 183.62 68.1288 184.28 68.1288C184.94 68.1288 185.628 68.1288 186.068 68.1563C186.288 68.7064 186.508 69.2565 186.756 69.8341H188.186C187.113 67.7163 186.096 65.5709 185.105 63.2605H183.703C182.685 65.3509 181.557 67.7163 180.457 69.8341H181.86C182.052 69.3115 182.272 68.7615 182.547 68.1563L182.52 68.1838ZM184.308 64.1957C184.803 65.2133 185.243 66.2035 185.655 67.2212C185.215 67.2212 184.803 67.2212 184.363 67.2212C183.895 67.2212 183.4 67.2212 182.932 67.1937C183.345 66.2585 183.813 65.2408 184.308 64.1957Z" fill="#F9F4E1"/>
<path d="M197.073 65.241C197.073 63.8933 196.166 63.2332 194.185 63.2332C193.305 63.2332 192.012 63.2607 191.242 63.2882C191.242 64.3884 191.242 65.461 191.242 66.5612C191.242 67.6614 191.242 68.7341 191.242 69.8343H192.425C192.425 68.9266 192.425 67.9915 192.397 67.0838C192.892 67.0838 193.663 67.1113 194.048 67.1113C195.148 68.294 195.836 69.2292 196.331 69.8343H197.898V69.6418C196.826 68.7066 195.863 67.5514 195.313 67.0013C196.496 66.7538 197.073 66.1212 197.073 65.2135V65.241ZM194.24 66.2037C193.443 66.2037 192.865 66.1762 192.397 66.1212C192.397 65.4885 192.397 64.8559 192.397 64.2508C192.782 64.2233 193.305 64.2233 194.103 64.1958C195.148 64.1958 195.89 64.4434 195.863 65.2685C195.863 65.9836 195.258 66.2037 194.213 66.2037H194.24Z" fill="#F9F4E1"/>
<path d="M202.656 69.8625C202.656 68.9823 202.628 68.0747 202.628 67.1945C203.398 67.1945 204.828 67.277 206.561 67.3595V66.3144H202.628C202.628 65.6267 202.628 64.9391 202.628 64.2515C204.141 64.224 205.489 64.2515 207.304 64.389V63.2888H201.445C201.445 65.4617 201.445 67.6621 201.445 69.8625H202.628H202.656Z" fill="#F9F4E1"/>
<path d="M127.622 0.302856H101.438V26.5149H127.622V0.302856ZM126.824 18.7586L121.764 13.6977H123.771L126.824 16.7507V18.7586ZM126.824 21.9491L118.573 13.6977H120.581L126.824 19.9413V21.9491ZM126.824 25.1397L115.382 13.6977H117.39L126.824 23.1318V25.1397ZM102.208 10.5621L111.669 1.1005H113.677L102.208 12.57V10.5621ZM102.208 7.37158L108.479 1.1005H110.487L102.208 9.37944V7.37158ZM102.208 4.18103L105.288 1.1005H107.296L102.208 6.18888V4.18103ZM102.208 1.1005H104.105L102.208 2.99833V1.1005ZM114.255 3.74095L104.848 13.1476H102.84L114.255 1.73311V3.74095ZM114.255 4.92366V6.93151L108.039 13.1476H106.031L114.255 4.92366ZM114.255 8.11422V10.1221L111.229 13.1476H109.221L114.255 8.11422ZM114.255 11.3048V13.1476H112.412L114.255 11.3048ZM114.805 23.8745L116.675 25.7448H114.805V23.8745ZM114.805 22.6917V20.6839L119.866 25.7448H117.858L114.805 22.6917ZM114.805 19.5012V17.4933L123.056 25.7448H121.048L114.805 19.5012ZM114.805 16.2831V14.2753L126.247 25.7173H124.239L114.805 16.2831ZM124.954 13.6977H126.824V15.568L124.954 13.6977ZM126.824 13.1476H114.805V1.1005H126.824V13.1476ZM102.208 13.6977H114.227V25.7448H102.208V13.6977Z" fill="#F9F4E1"/>
<path d="M158.235 0H132.023V26.2121H158.235V0ZM157.438 2.91551L155.347 5.00587H153.34L157.465 0.880152V2.888L157.438 2.91551ZM157.438 25.4144H156.42L157.438 24.3967V25.4144ZM155.237 25.4144H153.23L157.438 21.2062V23.214L155.237 25.4144ZM132.794 23.3791L134.966 21.2062H136.974L132.794 25.3869V23.3791ZM132.794 0.797639H133.894L132.794 1.89783V0.797639ZM135.076 0.797639H137.084L132.876 5.00587H132.794V3.05303L135.076 0.770133V0.797639ZM157.438 10.3968H132.794V5.55597H157.438V10.3968ZM157.438 20.6561H132.794V15.8152H157.438V20.6561ZM147.894 10.9469H149.902L145.556 15.2927H143.548L147.894 10.9469ZM142.365 15.2652H140.357L144.703 10.9194H146.711L142.365 15.2652ZM139.175 15.2652H137.167L141.513 10.9194H143.52L139.175 15.2652ZM146.766 15.2652L151.112 10.9194H153.175L148.829 15.2652H146.766ZM140.302 10.9469L135.957 15.2927H133.949L138.295 10.9469H140.302ZM150.012 15.2652L154.357 10.9194H156.365L152.019 15.2652H150.012ZM150.122 5.00587L154.33 0.797639H156.338L152.129 5.00587H150.122ZM148.939 5.00587H146.876L151.084 0.797639H153.147L148.939 5.00587ZM145.693 5.00587H143.685L147.894 0.797639H149.902L145.693 5.00587ZM142.475 5.00587H140.467L144.676 0.797639H146.683L142.475 5.00587ZM139.285 5.00587H137.277L141.485 0.797639H143.493L139.285 5.00587ZM136.094 5.00587H134.086L138.295 0.797639H140.302L136.094 5.00587ZM132.794 10.9469H133.894L132.794 12.0471V10.9469ZM135.076 10.9469H137.084L132.794 15.2377V13.2298L135.076 10.9469ZM132.794 21.2062H133.784L132.794 22.1964V21.2062ZM138.157 21.2062H140.165L135.957 25.4144H133.949L138.157 21.2062ZM141.375 21.2062H143.383L139.175 25.4144H137.167L141.375 21.2062ZM144.566 21.2062H146.573L142.365 25.4144H140.357L144.566 21.2062ZM147.784 21.2062H149.792L145.583 25.4144H143.575L147.784 21.2062ZM150.974 21.2062H153.037L148.829 25.4144H146.766L150.974 21.2062ZM154.22 21.2062H156.228L152.019 25.4144H150.012L154.22 21.2062ZM157.438 15.2652H156.42L157.438 14.2475V15.2652ZM155.237 15.2652H153.23L157.465 11.0294V13.0373L155.265 15.2377L155.237 15.2652ZM157.438 5.00587H156.53L157.438 4.09821V5.00587Z" fill="#F9F4E1"/>
</svg>
