<svg width="375" height="85" viewBox="0 0 375 85" fill="none" xmlns="http://www.w3.org/2000/svg">
<g clip-path="url(#clip0_254_239)">
<path d="M19.2443 75.6274C19.2443 79.3227 17.1091 81.9926 11.524 81.9926C6.63853 81.9926 4.46318 79.3227 4.46318 75.8325V62.7764H0.277344V75.6274C0.277344 77.9676 0.647274 80.0625 2.94727 81.9926C4.67227 83.4723 7.3422 84.5379 11.323 84.5379C15.3037 84.5379 17.9737 83.4281 19.6142 81.9524C21.7091 80.0223 22.1595 77.8068 22.1595 75.6314V62.7804H19.2443V75.6314V75.6274Z" fill="white"/>
<path d="M36.514 67.9916L50.9654 83.9629H54.1259V62.7764H51.2107V78.1727L37.3745 62.7764H33.5586V83.9629H36.514V67.9916Z" fill="white"/>
<path d="M70.448 62.7764H66.1777V83.9629H70.448V62.7764Z" fill="white"/>
<path d="M93.9417 84.7027C101.457 84.7027 107.573 79.6523 107.573 73.3716C107.573 67.0908 101.457 62.0002 93.9417 62.0002C86.4265 62.0002 80.3105 67.0908 80.3105 73.3716C80.3105 79.6523 86.4707 84.7027 93.9417 84.7027ZM93.9417 64.3364C99.6072 64.3364 102.852 68.3172 102.852 73.3675C102.852 78.4179 99.6072 82.3987 93.9417 82.3987C88.2761 82.3987 84.9105 78.4581 84.9105 73.3675C84.9105 68.277 88.2359 64.3364 93.9417 64.3364Z" fill="white"/>
<path d="M119.723 67.9916L134.174 83.9629H137.335V62.7764H134.424V78.1727L120.588 62.7764H116.768V83.9629H119.723V67.9916Z" fill="white"/>
<path d="M176.903 64.4813C181.173 64.4813 183.924 66.1661 186.139 68.0962L188.109 66.1259C185.484 63.8661 181.624 62.0205 177.064 62.0205C168.688 62.0205 162.982 67.0709 162.982 73.5969C162.982 80.1229 169.428 84.7229 177.104 84.7229C182.894 84.7229 185.809 82.7929 188.311 80.8226L186.34 78.8523C184.286 80.4929 181.785 82.2581 177.595 82.2581C172.339 82.2581 167.659 78.8925 167.659 73.5969C167.659 68.3013 172.01 64.4813 176.895 64.4813H176.903Z" fill="white"/>
<path d="M198.496 62.7964V83.9829H202.766V74.1717H215.822V83.9829H220.008V62.7964H215.822V71.7913H202.766V62.7964H198.496Z" fill="white"/>
<path d="M231.683 83.9829L234.558 78.442H247.695L250.734 83.9829H255.54L243.879 62.7964H239.978L228.277 83.9829H231.683ZM241 66.0815L246.46 76.142H235.704L241 66.0815Z" fill="white"/>
<path d="M266.741 68.0116L281.192 83.9829H284.352V62.7964H281.437V78.1927L267.601 62.7964H263.785V83.9829H266.741V68.0116Z" fill="white"/>
<path d="M298.518 68.0116L312.969 83.9829H316.13V62.7964H313.215V78.1927L299.379 62.7964H295.559V83.9829H298.518V68.0116Z" fill="white"/>
<path d="M347.06 81.3974H331.214V74.2924H339.754V71.7913H331.214V65.3417H346.2V62.7964H326.943V83.9829H347.06V81.3974Z" fill="white"/>
<path d="M374.229 81.3974H361.378V62.7964H357.107V83.9829H374.229V81.3974Z" fill="white"/>
<path d="M146.396 0.764648V38.5618H184.161V0.764648H146.396ZM164.881 37.4239H147.534V20.0613H164.881V37.4239ZM183.024 19.2692H165.677V1.90661H183.024V19.2692Z" fill="white"/>
<path d="M190.547 0.732422V38.5336H228.348V0.732422H190.547ZM227.21 30.5238H191.685V23.5515H227.21V30.5238ZM227.21 15.7146H191.685V8.74221H227.21V15.7146Z" fill="white"/>
</g>
<defs>
<clipPath id="clip0_254_239">
<rect width="373.951" height="83.9902" fill="white" transform="translate(0.279297 0.732422)"/>
</clipPath>
</defs>
</svg>
