<svg width="242" height="13" viewBox="0 0 242 13" fill="none" xmlns="http://www.w3.org/2000/svg">
<g clip-path="url(#clip0_600_5362)">
<path d="M241.442 6.93924L224.069 -0.284912L204.578 7.82098L185.086 -0.284912L165.588 7.82098L146.096 -0.284912L128.626 6.97573C127.013 7.58382 125.545 7.94868 124.693 7.94868C120.394 7.94868 118.287 6.27642 115.851 4.3366C113.208 2.2326 110.206 -0.151131 104.318 -0.151131C98.4297 -0.151131 95.4399 2.17179 92.7484 4.22714C90.0874 6.25818 87.7918 8.00949 82.8838 8.00949C77.9759 8.00949 75.6802 6.26426 72.9949 4.24539C70.2608 2.18395 67.1675 -0.151131 61.2304 -0.151131C55.2934 -0.151131 52.2001 2.18395 49.466 4.24539C46.7867 6.26426 44.4667 8.00949 39.5771 8.00949C34.6874 8.00949 32.3674 6.26426 29.6881 4.24539C26.954 2.18395 23.8607 -0.151131 17.9237 -0.151131C11.9866 -0.151131 8.8933 2.18395 6.15923 4.24539C4.40552 5.56495 2.81014 6.76289 0.551025 7.43788V10.6425C3.86967 9.8581 6.04962 8.22232 8.03472 6.72641C10.714 4.70754 13.0279 2.96231 17.9237 2.96231C22.8194 2.96231 25.1273 4.70754 27.8126 6.72641C30.5467 8.78785 33.64 11.1229 39.5771 11.1229C45.5141 11.1229 48.6074 8.78785 51.3415 6.72641C54.0208 4.70754 56.3408 2.96231 61.2304 2.96231C66.1201 2.96231 68.4401 4.70754 71.1194 6.72641C73.8535 8.78785 76.9468 11.1229 82.8838 11.1229C88.8208 11.1229 91.9203 8.77569 94.6361 6.70209C97.2606 4.69538 99.5318 2.96839 104.312 2.96839C109.092 2.96839 111.442 4.82307 113.902 6.78114C116.43 8.79393 119.298 11.0743 124.687 11.0743C126.282 11.0743 128.304 10.4358 129.771 9.88242L146.09 3.10217L165.582 11.2081L185.08 3.10217L204.571 11.2081L224.063 3.10217L241.436 10.3263V6.95748L241.442 6.93924Z" fill="#006182"/>
</g>
<defs>
<clipPath id="clip0_600_5362">
<rect width="242" height="12.2673" fill="white"/>
</clipPath>
</defs>
</svg>
