<svg width="242" height="13" viewBox="0 0 242 13" fill="none" xmlns="http://www.w3.org/2000/svg">
<g clip-path="url(#clip0_600_5028)">
<path d="M241.442 6.93924L224.069 -0.284912L204.577 7.82098L185.086 -0.284912L165.588 7.82098L146.096 -0.284912L128.626 6.97573C127.012 7.58382 125.545 7.94868 124.692 7.94868C120.393 7.94868 118.286 6.27642 115.851 4.3366C113.208 2.2326 110.206 -0.151131 104.318 -0.151131C98.4294 -0.151131 95.4396 2.17179 92.7482 4.22714C90.0872 6.25818 87.7915 8.00949 82.8836 8.00949C77.9756 8.00949 75.68 6.26426 72.9946 4.24539C70.2606 2.18395 67.1672 -0.151131 61.2302 -0.151131C55.2932 -0.151131 52.1998 2.18395 49.4658 4.24539C46.7865 6.26426 44.4665 8.00949 39.5768 8.00949C34.6871 8.00949 32.3671 6.26426 29.6879 4.24539C26.9538 2.18395 23.8604 -0.151131 17.9234 -0.151131C11.9864 -0.151131 8.89306 2.18395 6.15898 4.24539C4.40528 5.56495 2.80989 6.76289 0.550781 7.43788V10.6425C3.86942 9.8581 6.04938 8.22232 8.03447 6.72641C10.7137 4.70754 13.0277 2.96231 17.9234 2.96231C22.8192 2.96231 25.127 4.70754 27.8124 6.72641C30.5464 8.78785 33.6398 11.1229 39.5768 11.1229C45.5138 11.1229 48.6072 8.78785 51.3413 6.72641C54.0205 4.70754 56.3405 2.96231 61.2302 2.96231C66.1199 2.96231 68.4399 4.70754 71.1191 6.72641C73.8532 8.78785 76.9466 11.1229 82.8836 11.1229C88.8206 11.1229 91.92 8.77569 94.6358 6.70209C97.2603 4.69538 99.5316 2.96839 104.312 2.96839C109.092 2.96839 111.442 4.82307 113.902 6.78114C116.429 8.79393 119.297 11.0743 124.686 11.0743C126.282 11.0743 128.303 10.4358 129.771 9.88242L146.09 3.10217L165.582 11.2081L185.08 3.10217L204.571 11.2081L224.063 3.10217L241.436 10.3263V6.95748L241.442 6.93924Z" fill="#F2C724"/>
</g>
<defs>
<clipPath id="clip0_600_5028">
<rect width="242" height="12.2673" fill="white"/>
</clipPath>
</defs>
</svg>
