<svg width="242" height="13" viewBox="0 0 242 13" fill="none" xmlns="http://www.w3.org/2000/svg">
<g clip-path="url(#clip0_1019_6856)">
<path d="M241.442 6.93927L224.069 -0.284882L204.577 7.82101L185.086 -0.284882L165.588 7.82101L146.096 -0.284882L128.626 6.97576C127.012 7.58385 125.545 7.94871 124.692 7.94871C120.393 7.94871 118.287 6.27645 115.851 4.33663C113.208 2.23263 110.206 -0.1511 104.318 -0.1511C98.4294 -0.1511 95.4396 2.17182 92.7482 4.22717C90.0872 6.25821 87.7915 8.00952 82.8836 8.00952C77.9756 8.00952 75.68 6.26429 72.9946 4.24542C70.2606 2.18398 67.1672 -0.1511 61.2302 -0.1511C55.2932 -0.1511 52.1998 2.18398 49.4658 4.24542C46.7865 6.26429 44.4665 8.00952 39.5768 8.00952C34.6871 8.00952 32.3671 6.26429 29.6879 4.24542C26.9538 2.18398 23.8604 -0.1511 17.9234 -0.1511C11.9864 -0.1511 8.89306 2.18398 6.15898 4.24542C4.40528 5.56498 2.80989 6.76293 0.550781 7.43791V10.6426C3.86942 9.85813 6.04938 8.22235 8.03447 6.72644C10.7137 4.70757 13.0277 2.96234 17.9234 2.96234C22.8192 2.96234 25.127 4.70757 27.8124 6.72644C30.5464 8.78788 33.6398 11.123 39.5768 11.123C45.5138 11.123 48.6072 8.78788 51.3413 6.72644C54.0205 4.70757 56.3405 2.96234 61.2302 2.96234C66.1199 2.96234 68.4399 4.70757 71.1191 6.72644C73.8532 8.78788 76.9466 11.123 82.8836 11.123C88.8206 11.123 91.92 8.77572 94.6358 6.70212C97.2603 4.69541 99.5316 2.96842 104.312 2.96842C109.092 2.96842 111.442 4.8231 113.902 6.78117C116.429 8.79396 119.297 11.0743 124.686 11.0743C126.282 11.0743 128.303 10.4358 129.771 9.88245L146.09 3.1022L165.582 11.2081L185.08 3.1022L204.571 11.2081L224.063 3.1022L241.436 10.3264V6.95751L241.442 6.93927Z" fill="#F28F66"/>
</g>
<defs>
<clipPath id="clip0_1019_6856">
<rect width="242" height="12.2673" fill="white"/>
</clipPath>
</defs>
</svg>
