<svg width="217" height="11" viewBox="0 0 217 11" fill="none" xmlns="http://www.w3.org/2000/svg">
<g clip-path="url(#clip0_39_570)">
<path d="M217 6.84224L201.422 0.36438L183.944 7.63288L166.465 0.36438L148.982 7.63288L131.504 0.36438L115.838 6.87495C114.392 7.42023 113.076 7.74739 112.311 7.74739C108.456 7.74739 106.567 6.24789 104.383 4.50846C102.013 2.62181 99.3214 0.484341 94.0414 0.484341C88.7614 0.484341 86.0804 2.56729 83.667 4.41031C81.2809 6.23153 79.2224 7.80192 74.8215 7.80192C70.4206 7.80192 68.3621 6.23698 65.9541 4.42667C63.5025 2.57819 60.7287 0.484341 55.405 0.484341C50.0813 0.484341 47.3075 2.57819 44.8559 4.42667C42.4534 6.23698 40.3731 7.80192 35.9886 7.80192C31.604 7.80192 29.5237 6.23698 27.1212 4.42667C24.6696 2.57819 21.8958 0.484341 16.5721 0.484341C11.2484 0.484341 8.47461 2.57819 6.02298 4.42667C4.45045 5.60992 3.01987 6.68411 0.994141 7.28936V10.163C3.96995 9.45956 5.9247 7.99277 7.70472 6.65139C10.1072 4.84108 12.1821 3.27614 16.5721 3.27614C20.9621 3.27614 23.0315 4.84108 25.4394 6.65139C27.8911 8.49987 30.6649 10.5937 35.9886 10.5937C41.3122 10.5937 44.086 8.49987 46.5377 6.65139C48.9401 4.84108 51.0205 3.27614 55.405 3.27614C59.7896 3.27614 61.8699 4.84108 64.2724 6.65139C66.724 8.49987 69.4978 10.5937 74.8215 10.5937C80.1452 10.5937 82.9244 8.48897 85.3597 6.62958C87.713 4.83017 89.7497 3.2816 94.0359 3.2816C98.3222 3.2816 100.43 4.94468 102.636 6.70046C104.902 8.50532 107.473 10.5501 112.306 10.5501C113.736 10.5501 115.549 9.97757 116.865 9.48137L131.498 3.40156L148.976 10.6701L166.46 3.40156L183.938 10.6701L201.416 3.40156L216.994 9.87941V6.85859L217 6.84224Z" fill="#2B3B4A"/>
</g>
<defs>
<clipPath id="clip0_39_570">
<rect width="217" height="11" fill="white"/>
</clipPath>
</defs>
</svg>
