<svg width="217" height="11" viewBox="0 0 217 11" fill="none" xmlns="http://www.w3.org/2000/svg">
<g clip-path="url(#clip0_39_115)">
<path d="M217 6.59224L201.422 0.11438L183.944 7.38288L166.465 0.11438L148.982 7.38288L131.504 0.11438L115.838 6.62495C114.392 7.17023 113.076 7.49739 112.311 7.49739C108.456 7.49739 106.567 5.99789 104.383 4.25846C102.013 2.37181 99.3214 0.234341 94.0414 0.234341C88.7614 0.234341 86.0804 2.31729 83.667 4.16031C81.2809 5.98153 79.2224 7.55192 74.8215 7.55192C70.4206 7.55192 68.3621 5.98698 65.9541 4.17667C63.5025 2.32819 60.7287 0.234341 55.405 0.234341C50.0813 0.234341 47.3075 2.32819 44.8559 4.17667C42.4534 5.98698 40.3731 7.55192 35.9886 7.55192C31.604 7.55192 29.5237 5.98698 27.1212 4.17667C24.6696 2.32819 21.8958 0.234341 16.5721 0.234341C11.2484 0.234341 8.47461 2.32819 6.02298 4.17667C4.45045 5.35992 3.01987 6.43411 0.994141 7.03936V9.91296C3.96995 9.20956 5.9247 7.74277 7.70472 6.40139C10.1072 4.59108 12.1821 3.02614 16.5721 3.02614C20.9621 3.02614 23.0315 4.59108 25.4394 6.40139C27.8911 8.24987 30.6649 10.3437 35.9886 10.3437C41.3122 10.3437 44.086 8.24987 46.5377 6.40139C48.9401 4.59108 51.0205 3.02614 55.405 3.02614C59.7896 3.02614 61.8699 4.59108 64.2724 6.40139C66.724 8.24987 69.4978 10.3437 74.8215 10.3437C80.1452 10.3437 82.9244 8.23897 85.3597 6.37958C87.713 4.58017 89.7497 3.0316 94.0359 3.0316C98.3222 3.0316 100.43 4.69468 102.636 6.45046C104.902 8.25532 107.473 10.3001 112.306 10.3001C113.736 10.3001 115.549 9.72757 116.865 9.23137L131.498 3.15156L148.976 10.4201L166.46 3.15156L183.938 10.4201L201.416 3.15156L216.994 9.62941V6.60859L217 6.59224Z" fill="white"/>
</g>
<defs>
<clipPath id="clip0_39_115">
<rect width="217" height="11" fill="white"/>
</clipPath>
</defs>
</svg>
