<svg width="154" height="8" viewBox="0 0 154 8" fill="none" xmlns="http://www.w3.org/2000/svg">
<path d="M153.646 4.59768L142.59 0.000488281L130.187 5.15878L117.783 0.000488281L105.375 5.15878L92.9713 0.000488281L81.854 4.62089C80.8271 5.00786 79.8933 5.24005 79.3508 5.24005C76.615 5.24005 75.2743 4.17588 73.7243 2.94145C72.0426 1.60254 70.1322 0.0856219 66.3851 0.0856219C62.638 0.0856219 60.7354 1.56384 59.0226 2.8718C57.3293 4.16427 55.8684 5.27874 52.7452 5.27874C49.6219 5.27874 48.1611 4.16814 46.4522 2.88341C44.7123 1.57158 42.7438 0.0856219 38.9657 0.0856219C35.1876 0.0856219 33.2191 1.57158 31.4793 2.88341C29.7743 4.16814 28.2979 5.27874 25.1863 5.27874C22.0747 5.27874 20.5983 4.16814 18.8933 2.88341C17.1535 1.57158 15.185 0.0856219 11.4069 0.0856219C7.62877 0.0856219 5.66028 1.57158 3.92042 2.88341C2.80442 3.72313 1.78918 4.48546 0.351562 4.91499V6.95432C2.46343 6.45513 3.85067 5.41418 5.11391 4.46224C6.8189 3.1775 8.2914 2.0669 11.4069 2.0669C14.5224 2.0669 15.991 3.1775 17.6998 4.46224C19.4397 5.77406 21.4082 7.26002 25.1863 7.26002C28.9644 7.26002 30.9329 5.77406 32.6728 4.46224C34.3778 3.1775 35.8541 2.0669 38.9657 2.0669C42.0773 2.0669 43.5537 3.1775 45.2587 4.46224C46.9986 5.77406 48.967 7.26002 52.7452 7.26002C56.5233 7.26002 58.4956 5.76632 60.2239 4.44676C61.894 3.16976 63.3393 2.07077 66.3812 2.07077C69.4231 2.07077 70.9188 3.25102 72.4843 4.49706C74.0924 5.77793 75.9175 7.22907 79.3469 7.22907C80.3621 7.22907 81.6486 6.82275 82.5825 6.47061L92.9674 2.1559L105.371 7.3142L117.779 2.1559L130.183 7.3142L142.587 2.1559L153.642 6.75309V4.60929L153.646 4.59768Z" fill="#3BABA3"/>
</svg>
